<svg xmlns="http://www.w3.org/2000/svg" width="61" height="41" viewBox="0 0 61 41"><defs><style>.a{fill:#3e3f43;}</style></defs><g transform="translate(-277 -83)"><path class="a" d="M286,112a9,9,0,0,1-1.876-17.8,13,13,0,0,1,24.091-4.772,16.855,16.855,0,0,0-2.94.961,10,10,0,0,0-18.216,6.71A6,6,0,1,0,286,109h2v.874a8.943,8.943,0,0,0-.757,2.041A9.114,9.114,0,0,1,286,112Z"/><path class="a" d="M285.224,101.493a1.5,1.5,0,1,0,2.49-1.674l-.006-.006.039-.027A9.964,9.964,0,0,1,287,96h-3C284,100.261,286.248,103.017,285.224,101.493Z"/><path class="a" d="M328,124a9.95,9.95,0,0,1-6.712-2.6,17.873,17.873,0,0,1-18.576,0,9.994,9.994,0,1,1-8.621-17.21,18,18,0,0,1,35.817,0A10,10,0,0,1,328,124Zm1.939-16.722a18.056,18.056,0,0,1-1.133,5.125l-.1-.052a1.472,1.472,0,0,1-1.2.649,1.5,1.5,0,0,1-1.5-1.5,1.464,1.464,0,0,1,.181-.677,15.122,15.122,0,0,0,.771-3.735h-.007c.026-.361.055-.721.055-1.088h0c0-.413-.029-.82-.062-1.225q-.05-.532-.13-1.056a14.991,14.991,0,0,0-29.8,1.813c.025-.808-.064.48-.1.411a1.472,1.472,0,0,1-.923.958c0,.033.012.066.012.1a7,7,0,1,0,5.356,11.505l.02.028a1.448,1.448,0,0,1,2.111-.143c.006-.015.013-.025.019-.04a14.937,14.937,0,0,0,16.9.059c.005.021.012.032.017.052a1.491,1.491,0,0,1,2.138-.019l.012-.021a7,7,0,1,0,7.364-11.144Z"/></g></svg>