<svg xmlns="http://www.w3.org/2000/svg" width="52.964" height="43.906" viewBox="0 0 52.964 43.906"><defs><style>.a{fill:#3e3f43;}.b{fill:none;stroke:#3e3f43;stroke-linecap:round;stroke-width:3px;}</style></defs><g transform="translate(-628.036 -84)"><path class="a" d="M679.068,111.937a1.5,1.5,0,0,1-1.04-1.726c-.01-.068-.02-.138-.028-.211a7,7,0,0,0-5.061-6.722,18.033,18.033,0,0,1-1.133,5.126l-.1-.052a1.475,1.475,0,0,1-1.2.649,1.5,1.5,0,0,1-1.5-1.5,1.462,1.462,0,0,1,.181-.677,15.088,15.088,0,0,0,.771-3.736h-.007c.026-.361.055-.721.055-1.088,0-.413-.029-.82-.061-1.225q-.05-.532-.13-1.056a14.991,14.991,0,0,0-29.8,1.813c.014-.491-.012-.209-.042.073a1.223,1.223,0,0,1-.055.338,1.47,1.47,0,0,1-.922.958c0,.032.013.067.013.1a7,7,0,0,0-7,7,1.463,1.463,0,0,1-.021.247,1.5,1.5,0,1,1-2.967.067Q629,110.165,629,110a9.994,9.994,0,0,1,8.091-9.813,18,18,0,0,1,35.817,0A10,10,0,0,1,681,110q0,.179-.007.357a1.491,1.491,0,0,1-.031.476q0,.052-.01.1l-.031.042a1.5,1.5,0,0,1-1.854.959Z"/><path class="b" d="M630,124c15.226,6.4,22.295-1.89,34.375-2.683"/><path class="b" d="M673.778,122.259A41.384,41.384,0,0,1,679,124"/><path class="b" d="M630,116a32.027,32.027,0,0,0,5.971,1.89"/><path class="b" d="M644.972,118.086c10.283-1.63,17.887-8.625,34.028-2.086"/></g></svg>