<svg xmlns="http://www.w3.org/2000/svg" width="52" height="47.85" viewBox="0 0 52 47.85"><defs><style>.a{fill:#3e3f43;}</style></defs><g transform="translate(-118 -212)"><path class="a" d="M160,248a9.95,9.95,0,0,1-6.712-2.6,17.9,17.9,0,0,1-8.661,2.577c-.044,0-.082.026-.127.026a1.5,1.5,0,0,1,0-3v-.019a14.885,14.885,0,0,0,7.908-2.572c.005.02.012.032.017.052a1.491,1.491,0,0,1,2.138-.019l.012-.021a7,7,0,1,0,7.364-11.144,18.058,18.058,0,0,1-1.133,5.125l-.1-.052a1.473,1.473,0,0,1-1.2.649,1.5,1.5,0,0,1-1.5-1.5,1.465,1.465,0,0,1,.181-.678,15.118,15.118,0,0,0,.771-3.735h-.007c.026-.361.055-.721.055-1.088,0-.413-.029-.82-.062-1.225q-.05-.532-.13-1.056a14.991,14.991,0,0,0-29.8,1.813c.025-.809-.064.48-.1.411a1.472,1.472,0,0,1-.923.958c0,.033.012.066.012.1a7,7,0,0,0,0,14h2.139a1.47,1.47,0,0,1-.292,2.774l0,.053a10,10,0,0,1-3.758-19.64,18,18,0,0,1,35.817,0A10,10,0,0,1,160,248Z"/><circle class="a" cx="2" cy="2" r="2" transform="translate(135 245)"/><path class="a" d="M135.868,251.241a1.5,1.5,0,0,1,.9,1.923l-1.71,5.7a1.5,1.5,0,1,1-2.819-1.026l1.71-5.7A1.5,1.5,0,0,1,135.868,251.241Z"/><path class="a" d="M147.868,251.241a1.5,1.5,0,0,1,.9,1.923l-1.71,5.7a1.5,1.5,0,1,1-2.819-1.026l1.71-5.7A1.5,1.5,0,0,1,147.868,251.241Z"/></g></svg>