<svg xmlns="http://www.w3.org/2000/svg" width="52" height="48.609" viewBox="0 0 52 48.609"><defs><style>.a{fill:#3e3f43;}</style></defs><g transform="translate(-288 -212)"><path class="a" d="M330,248a9.951,9.951,0,0,1-6.712-2.6A17.887,17.887,0,0,1,314,248c1.5,0-2.031.458-2.031-1.5,0-2,3.323-1.5,2.031-1.5a14.887,14.887,0,0,0,8.408-2.591c.005.021.012.032.017.052a1.491,1.491,0,0,1,2.138-.019l.012-.02a7,7,0,1,0,7.364-11.144,18.053,18.053,0,0,1-1.133,5.125l-.1-.052a1.473,1.473,0,0,1-1.2.649,1.5,1.5,0,0,1-1.5-1.5,1.464,1.464,0,0,1,.181-.677,15.114,15.114,0,0,0,.771-3.735h-.007c.026-.361.055-.721.055-1.088,0-.413-.029-.82-.062-1.225q-.05-.532-.129-1.056a14.991,14.991,0,0,0-29.8,1.813c.025-.808-.064.48-.1.411a1.472,1.472,0,0,1-.922.958c0,.033.012.066.012.1a7,7,0,0,0,0,14h2.139a1.47,1.47,0,0,1-.292,2.774l0,.053a10,10,0,0,1-3.758-19.64,18,18,0,0,1,35.817,0A10,10,0,0,1,330,248Z"/><path class="a" d="M307.236,245.482a1.5,1.5,0,0,1,.9,1.923l-4.446,12.216a1.5,1.5,0,1,1-2.819-1.026l4.446-12.216A1.5,1.5,0,0,1,307.236,245.482Z"/><path class="a" d="M314.868,251.241a1.5,1.5,0,0,1,.9,1.923l-1.71,5.7a1.5,1.5,0,1,1-2.819-1.026l1.71-5.7A1.5,1.5,0,0,1,314.868,251.241Z"/><path class="a" d="M324.868,251.241a1.5,1.5,0,0,1,.9,1.923l-1.71,5.7a1.5,1.5,0,1,1-2.819-1.026l1.71-5.7A1.5,1.5,0,0,1,324.868,251.241Z"/></g></svg>