<svg xmlns="http://www.w3.org/2000/svg" width="27.969" height="38.142" viewBox="0 0 27.969 38.142">
  <g id="fast-forward" transform="translate(-64.013 38.142) rotate(-90)">
    <g id="Сгруппировать_7292" data-name="Сгруппировать 7292" transform="translate(16.527 64.013)">
      <g id="Сгруппировать_7291" data-name="Сгруппировать 7291">
        <path id="Контур_44921" data-name="Контур 44921" d="M229.289,77.148,217.847,64.435a1.272,1.272,0,0,0-.946-.422h-7.628a1.27,1.27,0,0,0-.946,2.121L219,78,208.327,89.859a1.273,1.273,0,0,0,.946,2.123H216.9a1.289,1.289,0,0,0,.946-.42L229.289,78.85A1.272,1.272,0,0,0,229.289,77.148Z" transform="translate(-208 -64.013)" fill="#e45868"/>
      </g>
    </g>
    <g id="Сгруппировать_7294" data-name="Сгруппировать 7294" transform="translate(0 64.013)">
      <g id="Сгруппировать_7293" data-name="Сгруппировать 7293" transform="translate(0)">
        <path id="Контур_44922" data-name="Контур 44922" d="M21.289,77.148,9.847,64.435a1.272,1.272,0,0,0-.946-.422H1.273a1.27,1.27,0,0,0-.946,2.121L11,78,.327,89.859a1.273,1.273,0,0,0,.946,2.123H8.9a1.289,1.289,0,0,0,.946-.42L21.289,78.85A1.272,1.272,0,0,0,21.289,77.148Z" transform="translate(0 -64.013)" fill="#e45868"/>
      </g>
    </g>
  </g>
</svg>
