<svg xmlns="http://www.w3.org/2000/svg" width="19.608" height="15.51" viewBox="0 0 19.608 15.51">
  <path id="letter" d="M18.64,67.794c.5-.7.968-3.9.968-6.6,0-2.518-.444-5.857-.966-6.6a.8.8,0,0,0-.373-.29c-3.5-1.327-16.069-1.025-17.231.2a.837.837,0,0,0-.16.248A21.12,21.12,0,0,0,0,61.192,21.09,21.09,0,0,0,.882,67.64a.833.833,0,0,0,.157.242c1.165,1.226,13.731,1.524,17.231.2A.8.8,0,0,0,18.64,67.794Zm-5.945-6.6,4.867-4.623a24.7,24.7,0,0,1,0,9.247ZM16.35,55.5,9.8,61.717,3.258,55.5a47.064,47.064,0,0,1,13.092,0ZM2.046,65.815a24.7,24.7,0,0,1,0-9.246l4.867,4.623Zm1.212,1.07L8.082,62.3,9.25,63.412a.805.805,0,0,0,1.109,0L11.526,62.3l4.824,4.582a47.069,47.069,0,0,1-13.092,0Z" transform="translate(0 -53.437)" fill="#fff"/>
</svg>
