<svg xmlns="http://www.w3.org/2000/svg" width="20.94" height="20.94" viewBox="0 0 20.94 20.94">
  <path id="calculation" d="M20.94,2.454A2.457,2.457,0,0,0,18.486,0H2.454A2.457,2.457,0,0,0,0,2.454V18.486A2.457,2.457,0,0,0,2.454,20.94H18.486a2.457,2.457,0,0,0,2.454-2.454Zm-1.636,0v7.2H11.288V1.636h7.2A.819.819,0,0,1,19.3,2.454ZM2.454,1.636h7.2V9.652H1.636v-7.2A.819.819,0,0,1,2.454,1.636Zm-.818,16.85v-7.2H9.652V19.3h-7.2A.819.819,0,0,1,1.636,18.486Zm16.85.818h-7.2V11.288H19.3v7.2A.819.819,0,0,1,18.486,19.3ZM3.217,5.644a.818.818,0,0,1,.818-.818h.791V4.035a.818.818,0,0,1,1.636,0v.791h.791a.818.818,0,0,1,0,1.636H6.462v.791a.818.818,0,0,1-1.636,0V6.462H4.035A.818.818,0,0,1,3.217,5.644ZM13.58,5.085a.818.818,0,0,1,1.157-1.157l.559.559.559-.559a.818.818,0,1,1,1.157,1.157l-.559.559.559.559A.818.818,0,1,1,15.855,7.36L15.3,6.8l-.559.559A.818.818,0,0,1,13.58,6.2l.559-.559ZM8.071,15.3a.818.818,0,0,1-.818.818H4.035a.818.818,0,0,1,0-1.636H7.253A.818.818,0,0,1,8.071,15.3ZM17.723,16.9a.818.818,0,0,1-.818.818H13.688a.818.818,0,1,1,0-1.636H16.9A.818.818,0,0,1,17.723,16.9Zm0-3.217a.818.818,0,0,1-.818.818H13.688a.818.818,0,0,1,0-1.636H16.9A.818.818,0,0,1,17.723,13.688Zm0,0" fill="#fff"/>
</svg>
