<svg xmlns="http://www.w3.org/2000/svg" width="17.107" height="17.106" viewBox="0 0 17.107 17.106">
  <g id="cancel" transform="translate(0 -0.016)">
    <g id="Сгруппировать_7275" data-name="Сгруппировать 7275" transform="translate(0 0.016)">
      <path id="Контур_44914" data-name="Контур 44914" d="M10.437,8.569l6.4-6.4a.937.937,0,0,0,0-1.323l-.56-.56a.938.938,0,0,0-1.323,0l-6.4,6.4-6.4-6.4a.937.937,0,0,0-1.323,0L.274.85a.936.936,0,0,0,0,1.323l6.4,6.4-6.4,6.4a.938.938,0,0,0,0,1.323l.561.56a.937.937,0,0,0,1.323,0l6.4-6.4,6.4,6.4a.928.928,0,0,0,.661.273h0a.928.928,0,0,0,.662-.273l.56-.56a.938.938,0,0,0,0-1.323Z" transform="translate(0 -0.016)" fill="#e45868"/>
    </g>
  </g>
</svg>
