<svg id="file-upload" xmlns="http://www.w3.org/2000/svg" width="29.982" height="27.874" viewBox="0 0 29.982 27.874">
  <path id="Контур_2830" data-name="Контур 2830" d="M25.3,0H4.685A4.69,4.69,0,0,0,0,4.684v16.4a4.69,4.69,0,0,0,4.685,4.685H20.671a1.171,1.171,0,0,0,0-2.342H16.357L13.665,19.93,22.2,9.076l5.744,6.349a1.171,1.171,0,0,0,2.039-.786V4.684A4.69,4.69,0,0,0,25.3,0Zm2.342,11.6L23,6.475a1.171,1.171,0,0,0-1.789.062L12.189,18.016,9.126,14.041a1.171,1.171,0,0,0-.928-.456h0a1.171,1.171,0,0,0-.928.457L4.692,17.393a1.171,1.171,0,0,0,1.857,1.428L8.2,16.676l5.2,6.747H4.685a2.345,2.345,0,0,1-2.342-2.342V4.684A2.345,2.345,0,0,1,4.685,2.342H25.3a2.345,2.345,0,0,1,2.342,2.342Zm0,0" transform="translate(0 0)" fill="#b8c6d4"/>
  <path id="Контур_2831" data-name="Контур 2831" d="M83.513,72a3.513,3.513,0,1,0,3.513,3.513A3.517,3.517,0,0,0,83.513,72Zm0,4.685a1.171,1.171,0,1,1,1.171-1.171A1.173,1.173,0,0,1,83.513,76.685Zm0,0" transform="translate(-75.315 -67.784)" fill="#b8c6d4"/>
  <path id="Контур_2832" data-name="Контур 2832" d="M359.762,288.875l-.01-.011a2.919,2.919,0,0,0-4.142,0l-2.261,2.23a1.171,1.171,0,0,0,1.645,1.668l1.514-1.493v6.573a1.171,1.171,0,0,0,2.342,0V291.3l1.449,1.5a1.171,1.171,0,1,0,1.683-1.629Zm0,0" transform="translate(-332.328 -271.135)" fill="#b8c6d4"/>
</svg>
