<svg xmlns="http://www.w3.org/2000/svg" xmlns:xlink="http://www.w3.org/1999/xlink" width="78.03" height="84.916" viewBox="0 0 78.03 84.916">
  <defs>
    <filter id="Объединение_3" x="0" y="0" width="78.03" height="84.916" filterUnits="userSpaceOnUse">
      <feOffset dy="5" input="SourceAlpha"/>
      <feGaussianBlur stdDeviation="5" result="blur"/>
      <feFlood flood-color="#152c50" flood-opacity="0.161"/>
      <feComposite operator="in" in2="blur"/>
      <feComposite in="SourceGraphic"/>
    </filter>
  </defs>
  <g id="Сгруппировать_7172" data-name="Сгруппировать 7172" transform="translate(-1254 -1746)">
    <g transform="matrix(1, 0, 0, 1, 1254, 1746)" filter="url(#Объединение_3)">
      <path id="Объединение_3-2" data-name="Объединение 3" d="M23.89,54.765c-.163-.181-3.4-3.824-4.415-7.041a24.014,24.014,0,1,1,9.536-.092c-.982,3.239-4.28,6.951-4.444,7.133a.455.455,0,0,1-.677,0Z" transform="translate(15 10)" fill="#fff"/>
    </g>
    <circle id="Эллипс_976" data-name="Эллипс 976" cx="20" cy="20" r="20" transform="translate(1273.515 1760.464)" fill="#e45868"/>
    <path id="Контур_44920" data-name="Контур 44920" d="M135.017,86.633l-7.444-7.274-7.444,7.274V96.716h14.889Zm-3.472,6.611H123.6V88.1l3.972-3.882,3.972,3.881Zm0,0" transform="translate(1165.504 1691.413)" fill="#fff"/>
  </g>
</svg>
