<svg id="real-estate" xmlns="http://www.w3.org/2000/svg" width="66.5" height="57.365" viewBox="0 0 66.5 57.365">
  <path id="Контур_44907" data-name="Контур 44907" d="M58.058,0H8.442A8.452,8.452,0,0,0,0,8.442V40.56A8.452,8.452,0,0,0,8.442,49h13.32l-1.117,4.466H13.854v3.9H52.646v-3.9H45.855L44.738,49h13.32A8.452,8.452,0,0,0,66.5,40.56V8.442A8.452,8.452,0,0,0,58.058,0Zm0,45.106H8.442A4.551,4.551,0,0,1,3.9,40.56V39.468H62.6V40.56A4.551,4.551,0,0,1,58.058,45.106ZM8.442,3.9H58.058A4.551,4.551,0,0,1,62.6,8.442V35.571H3.9V8.442A4.551,4.551,0,0,1,8.442,3.9Zm33.4,49.572H24.662L25.779,49H40.721Zm0,0" fill="#6283e5"/>
  <path id="Контур_44908" data-name="Контур 44908" d="M136.837,87.523l-8.355-8.163-8.354,8.163V98.838h16.709Zm-3.9,7.419h-8.916V89.164l4.458-4.356,4.458,4.356Zm0,0" transform="translate(-104.526 -69.052)" fill="#6283e5"/>
  <path id="Контур_44909" data-name="Контур 44909" d="M304.9,85.332h12.469v3.9H304.9Zm0,0" transform="translate(-265.301 -74.249)" fill="#6283e5"/>
  <path id="Контур_44910" data-name="Контур 44910" d="M304.9,142.332h12.469v3.9H304.9Zm0,0" transform="translate(-265.301 -123.846)" fill="#6283e5"/>
  <path id="Контур_44911" data-name="Контур 44911" d="M304.9,199.332h3.9v3.9h-3.9Zm0,0" transform="translate(-265.301 -173.442)" fill="#6283e5"/>
</svg>
