<svg xmlns="http://www.w3.org/2000/svg" width="20.371" height="14.922" viewBox="0 0 20.371 14.922">
  <g id="email" transform="translate(0 -24.61)">
    <path id="Контур_44478" data-name="Контур 44478" d="M17.8,24.61H2.574A2.577,2.577,0,0,0,0,27.184v9.773a2.577,2.577,0,0,0,2.574,2.574H17.8a2.577,2.577,0,0,0,2.574-2.574V27.184A2.577,2.577,0,0,0,17.8,24.61Zm-.4,1.661-7.209,5.569L2.977,26.271Zm.4,11.6H2.574a.915.915,0,0,1-.914-.914v-9.6l8.017,6.193a.831.831,0,0,0,1.015,0l8.017-6.193v9.6A.915.915,0,0,1,17.8,37.871Z" transform="translate(0 0)" fill="#6283e5"/>
  </g>
</svg>
