<svg xmlns="http://www.w3.org/2000/svg" width="15.568" height="15.334" viewBox="0 0 15.568 15.334">
  <g id="funnel" transform="translate(0 -2.917)">
    <g id="Сгруппировать_7297" data-name="Сгруппировать 7297" transform="translate(0 2.917)">
      <path id="Контур_44925" data-name="Контур 44925" d="M15.568,3.77a.853.853,0,0,0-.853-.853H.853a.853.853,0,0,0-.7,1.344l5.026,7.145L5.2,16.6a1.651,1.651,0,0,0,2.567,1.37l1.8-1.2a1.706,1.706,0,0,0,.76-1.427L10.3,11.437l5.11-7.173A.853.853,0,0,0,15.568,3.77ZM8.591,10.9l.021,4.462L6.9,16.5l-.015-5.634L2.5,4.623H13.06Z" transform="translate(0 -2.917)" fill="#fff"/>
    </g>
  </g>
</svg>
