<svg id="apple" xmlns="http://www.w3.org/2000/svg" width="38.545" height="46.994" viewBox="0 0 38.545 46.994">
  <path id="Контур_44568" data-name="Контур 44568" d="M58.8,154.125c-6.994-.04-12.779-14.318-12.779-21.589,0-11.877,8.91-14.477,12.344-14.477a14.2,14.2,0,0,1,4.657,1.145,10.411,10.411,0,0,0,2.659.762,8.276,8.276,0,0,0,1.908-.618,15.291,15.291,0,0,1,5.75-1.39h.013c1.685,0,6.792.37,9.863,4.981l.719,1.081L82.9,124.8c-1.479,1.116-4.177,3.152-4.177,7.184a8.108,8.108,0,0,0,4.524,7.5c.648.39,1.319.792,1.319,1.671,0,.574-4.582,12.9-11.236,12.9a9.036,9.036,0,0,1-3.794-.921,7.694,7.694,0,0,0-3.377-.813,8.687,8.687,0,0,0-2.674.723,13.1,13.1,0,0,1-4.638,1.082Z" transform="translate(-46.022 -107.131)" fill="#fff"/>
  <path id="Контур_44569" data-name="Контур 44569" d="M263.983,0c.173,6.248-4.3,10.583-8.759,10.311C254.489,5.325,259.687,0,263.983,0Z" transform="translate(-235.959)" fill="#fff"/>
</svg>
