<svg xmlns="http://www.w3.org/2000/svg" width="64.633" height="62.063" viewBox="0 0 64.633 62.063"><g transform="translate(0 -9.973)"><path d="M72.556,42.846V40.912a10.639,10.639,0,0,0-5.218-9.147,7.372,7.372,0,1,0-10.835,0A10.692,10.692,0,0,0,54.4,33.4a14.925,14.925,0,0,0-6.314-5.831,9.991,9.991,0,1,0-12.928,0A14.927,14.927,0,0,0,28.839,33.4a10.692,10.692,0,0,0-2.109-1.638,7.372,7.372,0,1,0-10.834,0,10.639,10.639,0,0,0-5.218,9.147v1.934ZM58.416,26.772a3.5,3.5,0,1,1,3.5,3.5A3.509,3.509,0,0,1,58.416,26.772ZM56.055,37.538a6.768,6.768,0,0,1,12.352,1.441H56.317c-.061-.47-.156-.989-.261-1.441ZM35.494,19.964a6.123,6.123,0,1,1,6.123,6.123A6.13,6.13,0,0,1,35.494,19.964Zm6.123,9.991A10.977,10.977,0,0,1,52.4,38.979H30.83A10.977,10.977,0,0,1,41.617,29.955ZM17.808,26.772a3.5,3.5,0,1,1,3.5,3.5A3.509,3.509,0,0,1,17.808,26.772ZM14.827,38.979a6.768,6.768,0,0,1,12.352-1.441c-.105.451-.2.97-.261,1.441Z" transform="translate(-9.301)" fill="#fff"/><path d="M64.633,307.412,57,306.3l-3.413-6.916L50.173,306.3l-7.214,1.048,2.661-2.593-9.193-1.336-4.111-8.33-4.111,8.33-9.193,1.336,2.66,2.593L14.46,306.3l-3.413-6.916L7.633,306.3,0,307.412,5.523,312.8l-1.3,7.6,6.827-3.589,6.827,3.589-1.3-7.6,5.344-5.209,3.75,3.655-1.57,9.156,8.222-4.323,8.222,4.323-1.57-9.156,3.751-3.656,5.345,5.21-1.3,7.6,6.827-3.589,6.827,3.589-1.3-7.6Zm-51.9,5.916-1.69-.889-1.691.889.323-1.883-1.368-1.333,1.89-.275.845-1.713.845,1.713,1.89.275-1.368,1.333Zm22.665,0-3.086-1.622-3.086,1.622.589-3.436-2.5-2.434,3.45-.5,1.543-3.126,1.543,3.126,3.45.5-2.5,2.434Zm19.875,0-1.691-.889-1.691.889.323-1.883-1.368-1.333,1.89-.275.845-1.713.845,1.713,1.89.275-1.368,1.333Z" transform="translate(0 -248.363)" fill="#fff"/></g></svg>