<svg xmlns="http://www.w3.org/2000/svg" width="27.176" height="27.176" viewBox="0 0 27.176 27.176"><defs><style>.a{fill:#fff;}</style></defs><path class="a" d="M27.176,3.185A3.188,3.188,0,0,0,23.991,0H3.185A3.188,3.188,0,0,0,0,3.185V23.991a3.188,3.188,0,0,0,3.185,3.185H23.991a3.188,3.188,0,0,0,3.185-3.185Zm-2.123,0v9.342h-10.4V2.123h9.342A1.063,1.063,0,0,1,25.053,3.185ZM3.185,2.123h9.342v10.4H2.123V3.185A1.063,1.063,0,0,1,3.185,2.123ZM2.123,23.991V14.649h10.4v10.4H3.185A1.063,1.063,0,0,1,2.123,23.991Zm21.868,1.062H14.649v-10.4h10.4v9.342A1.063,1.063,0,0,1,23.991,25.053ZM4.176,7.325A1.061,1.061,0,0,1,5.237,6.263H6.263V5.237a1.062,1.062,0,1,1,2.123,0V6.263H9.412a1.062,1.062,0,1,1,0,2.123H8.386V9.412a1.062,1.062,0,1,1-2.123,0V8.386H5.237A1.061,1.061,0,0,1,4.176,7.325ZM17.624,6.6a1.061,1.061,0,0,1,1.5-1.5l.726.725.726-.725a1.061,1.061,0,0,1,1.5,1.5l-.725.726.725.726a1.061,1.061,0,0,1-1.5,1.5l-.726-.725-.726.725a1.061,1.061,0,0,1-1.5-1.5l.725-.726Zm-7.15,13.252a1.061,1.061,0,0,1-1.062,1.062H5.237a1.062,1.062,0,0,1,0-2.123H9.413A1.061,1.061,0,0,1,10.474,19.851ZM23,21.939A1.061,1.061,0,0,1,21.939,23H17.763a1.062,1.062,0,0,1,0-2.123h4.175A1.061,1.061,0,0,1,23,21.939Zm0-4.175a1.061,1.061,0,0,1-1.062,1.062H17.763a1.062,1.062,0,0,1,0-2.123h4.175A1.061,1.061,0,0,1,23,17.763Zm0,0"/></svg>