<svg xmlns="http://www.w3.org/2000/svg" width="54" height="54" viewBox="0 0 54 54"><path d="M54,11.508a1.582,1.582,0,0,0-1.582-1.582H42.152l-.007-8.345A1.582,1.582,0,0,0,40.563,0H9.694A1.582,1.582,0,0,0,8.112,1.582V20.928a2.567,2.567,0,0,1-.507.332,4.91,4.91,0,0,1-1.127.2,4.8,4.8,0,0,0-3.1,1.138,4.8,4.8,0,0,0-1.138,3.1,4.926,4.926,0,0,1-.2,1.127,4.7,4.7,0,0,1-.626.872A4.831,4.831,0,0,0,0,30.752a4.831,4.831,0,0,0,1.419,3.06,4.706,4.706,0,0,1,.626.872,4.912,4.912,0,0,1,.2,1.127,4.8,4.8,0,0,0,1.138,3.1c.039.039.079.075.119.111v13.4a1.582,1.582,0,0,0,2.243,1.437L11.958,51l6.217,2.86a1.582,1.582,0,0,0,2.243-1.437V45.886l26.29-.047c4.039-.12,7.292-3.81,7.292-8.331,0-.048,0-.095,0-.142,0-.026,0-.053,0-.08ZM3.164,30.752a3.5,3.5,0,0,1,.7-1.054,6.783,6.783,0,0,0,1.1-1.666,7.082,7.082,0,0,0,.419-2.008,4.009,4.009,0,0,1,.226-1.19A3.9,3.9,0,0,1,6.808,24.6a7.076,7.076,0,0,0,2.008-.419,6.784,6.784,0,0,0,1.666-1.1,3.5,3.5,0,0,1,1.054-.7,3.5,3.5,0,0,1,1.054.7,6.78,6.78,0,0,0,1.666,1.1,7.079,7.079,0,0,0,2.008.419,4.009,4.009,0,0,1,1.19.226,3.9,3.9,0,0,1,.231,1.195l.009.086v.012a6.771,6.771,0,0,0,.409,1.911,6.781,6.781,0,0,0,1.1,1.666,3.5,3.5,0,0,1,.7,1.054,3.5,3.5,0,0,1-.7,1.054,6.783,6.783,0,0,0-1.1,1.666,7.078,7.078,0,0,0-.419,2.008,4.006,4.006,0,0,1-.226,1.19,3.9,3.9,0,0,1-1.195.231,7.076,7.076,0,0,0-2.008.419,6.781,6.781,0,0,0-1.666,1.1,3.5,3.5,0,0,1-1.054.7,3.5,3.5,0,0,1-1.054-.7,6.783,6.783,0,0,0-1.666-1.1A7.079,7.079,0,0,0,6.808,36.9a4.006,4.006,0,0,1-1.19-.226,3.9,3.9,0,0,1-.231-1.195,7.075,7.075,0,0,0-.419-2.008,6.784,6.784,0,0,0-1.1-1.666,3.505,3.505,0,0,1-.7-1.054Zm3.5,9.316a4,4,0,0,1,.942.175,4.7,4.7,0,0,1,.872.626,6.646,6.646,0,0,0,1.9,1.211V48.24L6.662,49.949Zm10.592,9.882L13.54,48.24V41.659a10.414,10.414,0,0,0,1.057-.79,4.7,4.7,0,0,1,.871-.626,4.913,4.913,0,0,1,1.127-.2c.21-.022.432-.046.659-.078v9.979Zm3.164-12.143a7.147,7.147,0,0,0,.414-2,4.918,4.918,0,0,1,.2-1.127,4.7,4.7,0,0,1,.626-.872,11.023,11.023,0,0,0,.743-.982H33.375a1.582,1.582,0,0,0,0-3.164H22.89a6.464,6.464,0,0,0-1.236-1.974l-.128-.157H33.405a1.582,1.582,0,1,0,0-3.164H20.632a3.621,3.621,0,0,0-.938-1.777,3.177,3.177,0,0,0-.415-.348H33.407a1.582,1.582,0,0,0,0-3.164H16.854a1.578,1.578,0,0,0-1.482,2.13,6.261,6.261,0,0,1-.774-.578,4.831,4.831,0,0,0-3.06-1.42c-.088,0-.175,0-.26.011V3.164H38.982l.029,34.345h0a8.9,8.9,0,0,0,1.638,5.19l-20.23.022V37.806Zm30.418-.645a1.543,1.543,0,0,0,0,.171v.043c0,.044,0,.088,0,.133,0,2.853-1.943,5.173-4.331,5.173s-4.33-2.321-4.33-5.173h0l-.02-24.417h8.681Z" fill="#e45868"/><path d="M163.3,80.576H146.91a1.582,1.582,0,0,0,0,3.164H163.3a1.582,1.582,0,1,0,0-3.164Z" transform="translate(-130 -72.078)" fill="#e45868"/><path d="M163.3,130.751H146.91a1.582,1.582,0,0,0,0,3.164H163.3a1.582,1.582,0,1,0,0-3.164Z" transform="translate(-130 -116.961)" fill="#e45868"/><path d="M260.982,331.45h-2.6a1.582,1.582,0,0,0,0,3.164h2.6a1.582,1.582,0,0,0,0-3.164Z" transform="translate(-229.717 -296.492)" fill="#e45868"/></svg>