<svg xmlns="http://www.w3.org/2000/svg" width="18.642" height="20" viewBox="0 0 18.642 20">
  <g id="delete_1_" data-name="delete (1)" transform="translate(-17.379)">
    <g id="Сгруппировать_7215" data-name="Сгруппировать 7215" transform="translate(17.379 3.003)">
      <g id="Сгруппировать_7214" data-name="Сгруппировать 7214">
        <g id="Сгруппировать_7213" data-name="Сгруппировать 7213">
          <path id="Контур_44872" data-name="Контур 44872" d="M306.712,175.113l-1.566-.057-.339,9.269,1.566.057Z" transform="translate(-293.579 -171.22)" fill="#e45868"/>
          <rect id="Прямоугольник_7961" data-name="Прямоугольник 7961" width="1.567" height="9.269" transform="translate(8.538 3.864)" fill="#e45868"/>
          <path id="Контур_44873" data-name="Контур 44873" d="M160.324,184.318l-.339-9.269-1.566.057.339,9.269Z" transform="translate(-152.91 -171.214)" fill="#e45868"/>
          <path id="Контур_44874" data-name="Контур 44874" d="M17.379,76.867v1.567h1.632L20.306,93.15a.783.783,0,0,0,.78.715h11.2a.783.783,0,0,0,.78-.715l1.3-14.716h1.659V76.867ZM31.57,92.3H21.8l-1.22-13.864H32.79Z" transform="translate(-17.379 -76.867)" fill="#e45868"/>
        </g>
      </g>
    </g>
    <g id="Сгруппировать_7217" data-name="Сгруппировать 7217" transform="translate(22.836)">
      <g id="Сгруппировать_7216" data-name="Сгруппировать 7216">
        <path id="Контур_44875" data-name="Контур 44875" d="M163.5,0h-5.117a1.307,1.307,0,0,0-1.305,1.305v2.48h1.567V1.567h4.6V3.786H164.8V1.305A1.307,1.307,0,0,0,163.5,0Z" transform="translate(-157.076)" fill="#e45868"/>
      </g>
    </g>
  </g>
</svg>
