<svg xmlns="http://www.w3.org/2000/svg" width="48.941" height="64" viewBox="0 0 48.941 64"><g transform="translate(-60)"><path d="M108.941,0H67.529V7.529H60V64h41.412V56.471h7.529ZM97.647,60.235H63.765V11.294h3.765V56.471H97.647Zm7.529-7.529H71.294V3.765h33.882Z" fill="#fff"/><path d="M180,60h3.765v3.765H180Z" transform="translate(-104.941 -52.471)" fill="#fff"/><path d="M180,120h3.765v3.765H180Z" transform="translate(-104.941 -104.941)" fill="#fff"/><path d="M180,180h3.765v3.765H180Z" transform="translate(-104.941 -157.412)" fill="#fff"/><path d="M240,180h18.824v3.765H240Z" transform="translate(-157.412 -157.412)" fill="#fff"/><path d="M240,120h18.824v3.765H240Z" transform="translate(-157.412 -104.941)" fill="#fff"/><path d="M240,60h18.824v3.765H240Z" transform="translate(-157.412 -52.471)" fill="#fff"/><path d="M180,240h13.176v3.765H180Z" transform="translate(-104.941 -209.882)" fill="#fff"/><path d="M180,300h26.353v3.765H180Z" transform="translate(-104.941 -262.353)" fill="#fff"/><path d="M180,360h26.353v3.765H180Z" transform="translate(-104.941 -314.824)" fill="#fff"/></g></svg>