<svg id="email" xmlns="http://www.w3.org/2000/svg" width="21.893" height="16.036" viewBox="0 0 21.893 16.036">
  <path id="Контур_44478" data-name="Контур 44478" d="M19.126,24.61H2.767A2.77,2.77,0,0,0,0,27.377v10.5a2.77,2.77,0,0,0,2.767,2.767H19.126a2.77,2.77,0,0,0,2.767-2.767v-10.5A2.77,2.77,0,0,0,19.126,24.61Zm-.432,1.785-7.747,5.985L3.2,26.395Zm.432,12.467H2.767a.983.983,0,0,1-.982-.982V27.557L10.4,34.213a.893.893,0,0,0,1.091,0l8.616-6.656V37.88A.983.983,0,0,1,19.126,38.862Z" transform="translate(0 -24.61)" fill="#fff"/>
</svg>
