<svg xmlns="http://www.w3.org/2000/svg" width="24.441" height="15.578" viewBox="0 0 24.441 15.578">
  <g id="Сгруппировать_4847" data-name="Сгруппировать 4847" transform="translate(-888.956 -4150)">
    <g id="Сгруппировать_440" data-name="Сгруппировать 440" transform="translate(888.956 4150)">
      <g id="Сгруппировать_439" data-name="Сгруппировать 439" transform="translate(0 0)">
        <path id="Контур_176" data-name="Контур 176" d="M24.285,100.148c-.218-.3-5.421-7.313-12.065-7.313S.373,99.85.155,100.148a.807.807,0,0,0,0,.951c.218.3,5.421,7.313,12.065,7.313S24.067,101.4,24.285,101.1A.806.806,0,0,0,24.285,100.148ZM12.22,106.8c-4.894,0-9.133-4.656-10.388-6.178C3.085,99.1,7.315,94.446,12.22,94.446s9.133,4.655,10.388,6.178C21.355,102.148,17.125,106.8,12.22,106.8Z" transform="translate(0 -92.835)" fill="#3b7fc5"/>
      </g>
    </g>
    <g id="Сгруппировать_442" data-name="Сгруппировать 442" transform="translate(896.928 4153.541)">
      <g id="Сгруппировать_441" data-name="Сгруппировать 441" transform="translate(0 0)">
        <path id="Контур_177" data-name="Контур 177" d="M158.97,154.725a4.248,4.248,0,1,0,4.249,4.248A4.253,4.253,0,0,0,158.97,154.725Z" transform="translate(-154.722 -154.725)" fill="#3b7fc5"/>
      </g>
    </g>
  </g>
</svg>
