<svg id="google-play" xmlns="http://www.w3.org/2000/svg" width="41.504" height="46.993" viewBox="0 0 41.504 46.993">
  <path id="Контур_44570" data-name="Контур 44570" d="M36.162.6A4.077,4.077,0,0,0,32.25.412l21.1,21.143,6.9-6.931Zm-5.85,1.77A4.3,4.3,0,0,0,29.9,4.2V42.88a4.135,4.135,0,0,0,.413,1.817l21.09-21.19Zm23.04,23.088L32.287,46.621a4.134,4.134,0,0,0,1.748.372,4.091,4.091,0,0,0,2.128-.574l24.09-14.047ZM69.42,19.966l-.026-.016-6.687-3.894L55.293,23.5l7.418,7.434,6.708-3.911a4.131,4.131,0,0,0,0-7.061Z" transform="translate(-29.902 0)" fill="#fff"/>
</svg>
