<svg xmlns="http://www.w3.org/2000/svg" width="65.92" height="66" viewBox="0 0 65.92 66"><g transform="translate(0 0)"><path d="M40.8,0A25.113,25.113,0,0,0,19.416,38.309L0,57.8,8.2,66,27.617,46.507A25.122,25.122,0,1,0,40.8,0ZM8.195,60.528,5.462,57.795l3.059-3.071,2.733,2.733Zm5.787-5.809-2.733-2.733L21.727,41.467A25.322,25.322,0,0,0,24.46,44.2ZM40.8,46.385a21.26,21.26,0,1,1,21.26-21.26A21.284,21.284,0,0,1,40.8,46.385Zm0,0" fill="#fff"/><path d="M198.925,59.973A17.394,17.394,0,1,0,216.32,77.367,17.414,17.414,0,0,0,198.925,59.973Zm0,30.923a13.529,13.529,0,1,1,13.529-13.529A13.544,13.544,0,0,1,198.925,90.9Zm0,0" transform="translate(-158.13 -52.242)" fill="#fff"/><path d="M253.06,162.622l-4.432-4.432-2.733,2.733,7.165,7.165,11.03-11.03-2.733-2.733Zm0,0" transform="translate(-214.197 -134.432)" fill="#fff"/></g></svg>