<svg xmlns="http://www.w3.org/2000/svg" width="20" height="20" viewBox="0 0 56.009 56.009"><path d="M27.052,0H9.184V3.3H0V56.009H36.237V3.3H27.052ZM12.466,3.282h11.3V6.591h-11.3Zm20.488,3.3v46.15H3.282V6.577h5.9v3.3H27.052v-3.3Z" transform="translate(0)" fill="#e45868"/><path d="M75.25,180.75h3.3v3.282h-3.3Z" transform="translate(-67.018 -160.977)" fill="#e45868"/><path d="M135.5,180.75h13.182v3.282H135.5Z" transform="translate(-120.677 -160.977)" fill="#e45868"/><path d="M75.25,241h3.3v3.282h-3.3Z" transform="translate(-67.018 -214.636)" fill="#e45868"/><path d="M135.5,241h13.182v3.282H135.5Z" transform="translate(-120.677 -214.636)" fill="#e45868"/><path d="M75.25,301.25h3.3v3.282h-3.3Z" transform="translate(-67.018 -268.295)" fill="#e45868"/><path d="M135.5,301.25h13.182v3.282H135.5Z" transform="translate(-120.677 -268.295)" fill="#e45868"/><path d="M75.25,361.5h3.3v3.282h-3.3Z" transform="translate(-67.018 -321.954)" fill="#e45868"/><path d="M135.5,361.5h13.182v3.282H135.5Z" transform="translate(-120.677 -321.954)" fill="#e45868"/><path d="M371.373,6.591V3.3h-3.3V0H364.8V3.3h-3.3V48.338a4.944,4.944,0,0,0,3.3,4.655v3.016h3.282V52.993a4.944,4.944,0,0,0,3.3-4.655V9.873h3.309V21.414h3.282V6.591Zm-3.282-.014v6.6h-3.309v-6.6Zm0,9.886v3.309h-3.309V16.464Zm-1.655,33.529a1.656,1.656,0,0,1-1.655-1.655V23.055h3.309V48.338A1.656,1.656,0,0,1,366.436,49.993Z" transform="translate(-321.954)" fill="#e45868"/></svg>