<svg xmlns="http://www.w3.org/2000/svg" width="14.999" height="24.001" viewBox="0 0 14.999 24.001"><defs><style>.a{fill:#ffc107;}</style></defs><g transform="translate(-4.5)"><path class="a" d="M4.721,12.881c-.613,1.2.083,1.781,1.671,2.765a11.01,11.01,0,0,0,4.413,1.261l-1,.966c-1.423,1.355-2.773,2.667-3.717,3.576-1.374,1.317.838,3.43,2.211,2.141l3.717-3.585c1.423,1.369,2.787,2.681,3.717,3.59,1.374,1.294,3.585-.8,2.226-2.141l-3.717-3.576-1.018-.966A11.041,11.041,0,0,0,17.6,15.651h0c1.588-.989,2.284-1.564,1.68-2.769-.365-.684-1.349-1.256-2.659-.267A8.1,8.1,0,0,1,12,13.969,8.1,8.1,0,0,1,7.38,12.614c-1.31-.994-2.3-.417-2.659.267Z"/><path class="a" d="M12,12.142a6.2,6.2,0,0,0,6.318-6.064A6.207,6.207,0,0,0,12,0,6.207,6.207,0,0,0,5.68,6.078,6.2,6.2,0,0,0,12,12.142Zm0-9.063a3.054,3.054,0,0,1,3.1,3,3.105,3.105,0,0,1-6.206,0,3.052,3.052,0,0,1,3.1-3Z"/></g></svg>