<svg xmlns="http://www.w3.org/2000/svg" width="25.238" height="31" viewBox="0 0 25.238 31">
  <g id="pdf-file" transform="translate(-44.806)">
    <path id="Контур_44880" data-name="Контур 44880" d="M120.043,298.234c0-.515-.357-.822-.988-.822a2.185,2.185,0,0,0-.523.05v1.652a1.982,1.982,0,0,0,.424.032C119.628,299.146,120.043,298.806,120.043,298.234Z" transform="translate(-68.987 -278.289)" fill="#6283e5"/>
    <path id="Контур_44881" data-name="Контур 44881" d="M194.377,297.681a2.608,2.608,0,0,0-.573.05v3.658a2.287,2.287,0,0,0,.44.025,1.734,1.734,0,0,0,1.892-1.958A1.6,1.6,0,0,0,194.377,297.681Z" transform="translate(-139.418 -278.541)" fill="#6283e5"/>
    <path id="Контур_44882" data-name="Контур 44882" d="M62.208,0H49.757a3.3,3.3,0,0,0-3.3,3.3V15.5h-.322a1.329,1.329,0,0,0-1.33,1.33v8.063a1.329,1.329,0,0,0,1.33,1.329h.322V27.7a3.3,3.3,0,0,0,3.3,3.3H66.746a3.3,3.3,0,0,0,3.3-3.3V7.809ZM48.294,18.285A10.422,10.422,0,0,1,50,18.169a2.681,2.681,0,0,1,1.709.448,1.635,1.635,0,0,1,.6,1.294,1.787,1.787,0,0,1-.514,1.327,2.593,2.593,0,0,1-1.817.589,3.275,3.275,0,0,1-.432-.024v2H48.294ZM66.746,28.979H49.757A1.28,1.28,0,0,1,48.479,27.7V26.222H64.316a1.329,1.329,0,0,0,1.33-1.329V16.83a1.329,1.329,0,0,0-1.33-1.33H48.479V3.3a1.279,1.279,0,0,1,1.278-1.277L61.452,2.01V6.333A2.289,2.289,0,0,0,63.74,8.621l4.235-.012L68.023,27.7A1.279,1.279,0,0,1,66.746,28.979Zm-13.629-5.2V18.285a11.388,11.388,0,0,1,1.709-.115,3.6,3.6,0,0,1,2.29.6,2.474,2.474,0,0,1,.945,2.108,2.834,2.834,0,0,1-.929,2.265,4.014,4.014,0,0,1-2.58.722A10.946,10.946,0,0,1,53.117,23.777Zm9.055-3.252v1.028H60.164V23.8H58.894V18.211h3.418v1.037H60.164v1.278Z" fill="#6283e5"/>
  </g>
</svg>
