<svg xmlns="http://www.w3.org/2000/svg" width="56" height="56" viewBox="0 0 56 56"><path d="M53.812,0H2.187A2.187,2.187,0,0,0,0,2.187V45.062A2.187,2.187,0,0,0,2.187,47.25H18.344l8.109,8.109a2.188,2.188,0,0,0,3.094,0l8.109-8.109H53.812A2.187,2.187,0,0,0,56,45.062V2.187A2.187,2.187,0,0,0,53.812,0ZM51.625,42.875H36.75a2.188,2.188,0,0,0-1.547.641l-7.2,7.2-7.2-7.2a2.188,2.188,0,0,0-1.547-.641H4.375V4.375h47.25ZM19.669,27.533l-1.217,7.1a2.189,2.189,0,0,0,3.174,2.306L28,33.585l6.374,3.351a2.189,2.189,0,0,0,3.174-2.306l-1.217-7.1,5.157-5.027a2.189,2.189,0,0,0-1.212-3.731l-7.126-1.036-3.187-6.458a2.189,2.189,0,0,0-3.923,0l-3.187,6.458-7.126,1.036a2.189,2.189,0,0,0-1.212,3.731ZM24.619,21.9a2.187,2.187,0,0,0,1.647-1.2L28,17.193l1.734,3.514a2.187,2.187,0,0,0,1.647,1.2l3.878.563L32.453,25.2a2.187,2.187,0,0,0-.629,1.936L32.487,31l-3.469-1.824a2.187,2.187,0,0,0-2.036,0L23.513,31l.662-3.862a2.187,2.187,0,0,0-.629-1.936l-2.806-2.735Z" fill="#fff"/></svg>