<svg xmlns="http://www.w3.org/2000/svg" width="11.551" height="6.822" viewBox="0 0 11.551 6.822">
  <g id="multimedia-option" transform="translate(11.551 6.822) rotate(180)">
    <g id="Сгруппировать_4891" data-name="Сгруппировать 4891" transform="translate(0)">
      <path id="Контур_43865" data-name="Контур 43865" d="M11.366,6.252l-.378.381a.633.633,0,0,1-.894,0L5.778,2.317,1.457,6.638a.633.633,0,0,1-.894,0L.185,6.259a.632.632,0,0,1,0-.894L5.329.2A.646.646,0,0,1,5.777,0h0a.646.646,0,0,1,.447.2l5.14,5.149a.638.638,0,0,1,.185.451A.632.632,0,0,1,11.366,6.252Z" fill="#fff"/>
    </g>
  </g>
</svg>
