<svg xmlns="http://www.w3.org/2000/svg" width="18.088" height="17.334" viewBox="0 0 18.088 17.334">
  <g id="settings_1_" data-name="settings (1)" transform="translate(0 -10.667)">
    <g id="Сгруппировать_1542" data-name="Сгруппировать 1542" transform="translate(0 22.725)">
      <g id="Сгруппировать_1541" data-name="Сгруппировать 1541" transform="translate(0 0)">
        <path id="Контур_1423" data-name="Контур 1423" d="M17.334,353.884H15.327a2.621,2.621,0,0,0-5.03,0H.754a.754.754,0,0,0,0,1.507H10.3a2.621,2.621,0,0,0,5.03,0h2.007a.754.754,0,0,0,0-1.507Zm-4.522,1.884a1.13,1.13,0,1,1,1.13-1.13A1.132,1.132,0,0,1,12.812,355.768Z" transform="translate(0 -352)" fill="#6283e5"/>
      </g>
    </g>
    <g id="Сгруппировать_1544" data-name="Сгруппировать 1544" transform="translate(0 10.667)">
      <g id="Сгруппировать_1543" data-name="Сгруппировать 1543" transform="translate(0 0)">
        <path id="Контур_1424" data-name="Контур 1424" d="M17.334,12.551H15.327a2.621,2.621,0,0,0-5.03,0H.754a.754.754,0,1,0,0,1.507H10.3a2.621,2.621,0,0,0,5.03,0h2.007a.754.754,0,0,0,0-1.507Zm-4.522,1.884a1.13,1.13,0,1,1,1.13-1.13A1.132,1.132,0,0,1,12.812,14.435Z" transform="translate(0 -10.667)" fill="#6283e5"/>
      </g>
    </g>
    <g id="Сгруппировать_1546" data-name="Сгруппировать 1546" transform="translate(0 16.696)">
      <g id="Сгруппировать_1545" data-name="Сгруппировать 1545">
        <path id="Контур_1425" data-name="Контур 1425" d="M17.334,183.218H7.791a2.621,2.621,0,0,0-5.03,0H.754a.754.754,0,1,0,0,1.507H2.761a2.621,2.621,0,0,0,5.03,0h9.544a.754.754,0,0,0,0-1.507ZM5.276,185.1a1.13,1.13,0,1,1,1.13-1.13A1.132,1.132,0,0,1,5.276,185.1Z" transform="translate(0 -181.334)" fill="#6283e5"/>
      </g>
    </g>
  </g>
</svg>
