<svg id="Solid" xmlns="http://www.w3.org/2000/svg" width="20.323" height="20.323" viewBox="0 0 20.323 20.323">
  <path id="Контур_44894" data-name="Контур 44894" d="M145.763,39.81a1.051,1.051,0,0,0,1.487,0l3.964-3.964a1.051,1.051,0,1,0-1.487-1.487l-2.17,2.17V25.051a1.051,1.051,0,0,0-2.1,0V36.529l-2.17-2.17a1.051,1.051,0,1,0-1.487,1.487Z" transform="translate(-136.345 -24)" fill="#6283e5"/>
  <path id="Контур_44895" data-name="Контур 44895" d="M43.272,232a1.051,1.051,0,0,0-1.051,1.051v8.059H26.1v-8.059a1.051,1.051,0,1,0-2.1,0v8.41a1.752,1.752,0,0,0,1.752,1.752H42.571a1.752,1.752,0,0,0,1.752-1.752v-8.41A1.051,1.051,0,0,0,43.272,232Z" transform="translate(-24 -222.89)" fill="#6283e5"/>
</svg>
