<svg xmlns="http://www.w3.org/2000/svg" width="35.397" height="33.766" viewBox="0 0 35.397 33.766">
  <g id="starGreen" transform="translate(0 -11.796)">
    <g id="Сгруппировать_7255" data-name="Сгруппировать 7255" transform="translate(0 11.796)">
      <path id="Контур_44892" data-name="Контур 44892" d="M35.347,24.618a1.037,1.037,0,0,0-.837-.706L23.536,22.318l-4.908-9.943a1.037,1.037,0,0,0-1.86,0l-4.908,9.943L.888,23.912a1.037,1.037,0,0,0-.575,1.769l7.94,7.74L6.379,44.35a1.037,1.037,0,0,0,1.5,1.093l9.815-5.16,9.814,5.16a1.037,1.037,0,0,0,1.5-1.093L27.143,33.421l7.941-7.74A1.037,1.037,0,0,0,35.347,24.618Z" transform="translate(0 -11.796)" fill="#56c46f"/>
    </g>
  </g>
</svg>
