<svg xmlns="http://www.w3.org/2000/svg" width="20.165" height="16.504" viewBox="0 0 20.165 16.504">
  <path id="twitter" d="M7.523,16.5a17.3,17.3,0,0,1-2.672-.212A12.542,12.542,0,0,1,1.2,14.962L0,14.309l1.294-.425c1.414-.465,2.274-.753,3.339-1.205a4.442,4.442,0,0,1-2.283-2.646l-.3-.914.247.038a4.487,4.487,0,0,1-.562-.693,4.254,4.254,0,0,1-.722-2.529l.057-.8.477.185A4.463,4.463,0,0,1,1.113,4.11,4.613,4.613,0,0,1,1.6,1L2.02.241l.556.668A10.236,10.236,0,0,0,9.207,4.642a3.966,3.966,0,0,1,.241-2.107A3.945,3.945,0,0,1,11.052.7a4.817,4.817,0,0,1,2.8-.687,4.466,4.466,0,0,1,2.745,1.132,9.215,9.215,0,0,0,1-.335c.22-.083.47-.177.783-.285l1.152-.4L18.781,2.27c.05,0,.1-.008.154-.01l1.23-.056-.727.994c-.042.057-.052.073-.067.1-.059.088-.132.2-1.13,1.531a1.88,1.88,0,0,0-.351,1.224,11.578,11.578,0,0,1-.632,4.657,8.24,8.24,0,0,1-2.212,3.277,9.77,9.77,0,0,1-4.631,2.239,14.257,14.257,0,0,1-2.892.284Zm0,0" transform="translate(0 0)" fill="#59bfff"/>
</svg>
