<svg xmlns="http://www.w3.org/2000/svg" width="28.784" height="16.791" viewBox="0 0 28.784 16.791"><defs><style>.a{fill:#4278bc;}</style></defs><path class="a" d="M23.886,14.629c-.465-.588-.332-.849,0-1.374.006-.006,3.848-5.314,4.243-7.115h0c.2-.656,0-1.138-.951-1.138H24.033a1.351,1.351,0,0,0-1.368.877A25.742,25.742,0,0,1,18.8,12.2c-.732.718-1.07.949-1.469.949-.2,0-.5-.23-.5-.886V6.138C16.824,5.351,16.6,5,15.936,5H10.987a.753.753,0,0,0-.8.709c0,.746,1.133.918,1.251,3.016v4.554c0,1-.181,1.181-.583,1.181-1.07,0-3.666-3.851-5.205-8.259C5.338,5.347,5.035,5,4.228,5H1.079C.181,5,0,5.415,0,5.878,0,6.7,1.07,10.763,4.975,16.136c2.6,3.668,6.268,5.655,9.6,5.655,2,0,2.249-.441,2.249-1.2,0-3.5-.181-3.836.823-3.836.465,0,1.267.23,3.138,2,2.138,2.1,2.49,3.037,3.687,3.037H27.62c.9,0,1.352-.441,1.09-1.312C28.112,18.648,24.068,14.88,23.886,14.629Z" transform="translate(0 -5)"/></svg>