<svg xmlns="http://www.w3.org/2000/svg" width="38.397" height="29.248" viewBox="0 0 38.397 29.248">
  <g id="wallet" transform="translate(0 -61)">
    <path id="Контур_44896" data-name="Контур 44896" d="M28.273,162.406a7.874,7.874,0,0,1,0-15.749h7.874v-3.375H2.25A4.448,4.448,0,0,1,0,142.656v17.5a5.631,5.631,0,0,0,5.625,5.625H36.148v-3.375Z" transform="translate(0 -75.532)" fill="#56c46f"/>
    <path id="Контур_44897" data-name="Контур 44897" d="M307.625,226a5.625,5.625,0,0,0,0,11.249h10.124V226Zm1.125,6.75H306.5V230.5h2.25Z" transform="translate(-279.352 -152.626)" fill="#56c46f"/>
    <path id="Контур_44898" data-name="Контур 44898" d="M2.25,65.5a2.25,2.25,0,1,1,0-4.5h29.4v4.5Z" transform="translate(0 0)" fill="#56c46f"/>
  </g>
</svg>
