<svg xmlns="http://www.w3.org/2000/svg" width="35.398" height="36.467" viewBox="0 0 35.398 36.467">
  <g id="check-mark-" transform="translate(-0.654)">
    <g id="Сгруппировать_7242" data-name="Сгруппировать 7242" transform="translate(0.654)">
      <path id="Контур_44879" data-name="Контур 44879" d="M32.651,0H4.056a3.383,3.383,0,0,0-3.4,3.381V24.218a3.4,3.4,0,0,0,1.6,2.889l14.2,8.845a3.4,3.4,0,0,0,3.583.011L34.435,27.1a3.4,3.4,0,0,0,1.617-2.9V3.381A3.382,3.382,0,0,0,32.651,0ZM27.233,14.361l-9.549,9.548a2.16,2.16,0,0,1-3.055,0L9.9,19.177a2.159,2.159,0,0,1,0-3.055h0a2.158,2.158,0,0,1,3.053,0l2.82,2.82a.546.546,0,0,0,.773,0l7.635-7.635a2.161,2.161,0,0,1,3.056,0h0A2.16,2.16,0,0,1,27.233,14.361Z" transform="translate(-0.654)" fill="#56c46f"/>
    </g>
  </g>
</svg>
