<svg id="exit" xmlns="http://www.w3.org/2000/svg" width="24" height="24" viewBox="0 0 24 24">
  <g id="Сгруппировать_7274" data-name="Сгруппировать 7274">
    <g id="Сгруппировать_7273" data-name="Сгруппировать 7273">
      <path id="Контур_44913" data-name="Контур 44913" d="M20.538,0H3.462A3.465,3.465,0,0,0,0,3.462V20.538A3.465,3.465,0,0,0,3.462,24H20.538A3.465,3.465,0,0,0,24,20.538V3.462A3.465,3.465,0,0,0,20.538,0ZM19,15.714a2.317,2.317,0,0,1-3.272,3.28L12,15.272,8.271,18.994A2.317,2.317,0,0,1,5,15.714L8.72,12,5,8.286a2.317,2.317,0,1,1,3.272-3.28L12,8.728l3.729-3.721a2.32,2.32,0,0,1,3.272,0h0a2.317,2.317,0,0,1,0,3.28L15.28,12Z" fill="#e45868"/>
    </g>
  </g>
</svg>
