<svg xmlns="http://www.w3.org/2000/svg" width="71.412" height="71.494" viewBox="0 0 71.412 71.494">
  <g id="growing" transform="translate(-0.295)">
    <path id="Контур_44900" data-name="Контур 44900" d="M90.974,348.693h12.569V331.934H90.974Zm4.19-12.569h4.19V344.5h-4.19Z" transform="translate(-78.015 -285.578)" fill="#d5d6de"/>
    <path id="Контур_44901" data-name="Контур 44901" d="M210.974,322.882h12.569V301.934H210.974Zm4.19-16.759h4.19v12.569h-4.19Z" transform="translate(-181.257 -259.768)" fill="#d5d6de"/>
    <path id="Контур_44902" data-name="Контур 44902" d="M330.974,271.261h12.569V241.934H330.974Zm4.19-25.138h4.19v20.948h-4.19Z" transform="translate(-284.498 -208.147)" fill="#d5d6de"/>
    <path id="Контур_44903" data-name="Контур 44903" d="M107.733,156.124h5.33A33.061,33.061,0,0,1,90.974,164.5v4.19a37.5,37.5,0,0,0,25.138-9.674V164.5h4.19V151.934H107.733Z" transform="translate(-78.015 -130.716)" fill="#d5d6de"/>
    <path id="Контур_44904" data-name="Контур 44904" d="M71.707,31.26,63.234,23.83V9.068H50.666v3.763L36,0,.3,31.261l2.76,3.152L4.58,33.079V71.494H67.424V33.077l1.52,1.333ZM63.234,67.3H8.769V29.411L36,5.568l18.853,16.5V13.258h4.19V25.729l4.19,3.674Z" fill="#d5d6de"/>
  </g>
</svg>
