<svg xmlns="http://www.w3.org/2000/svg" width="70.494" height="70.494" viewBox="0 0 70.494 70.494">
  <g id="likeBlue" transform="translate(0.001)">
    <path id="Контур_44905" data-name="Контур 44905" d="M60.169,10.324A35.246,35.246,0,0,0,0,35.247a34.974,34.974,0,0,0,6,19.668L.187,67.567a2.065,2.065,0,0,0,2.739,2.739L15.578,64.5A35.248,35.248,0,0,0,70.493,35.247,35.017,35.017,0,0,0,60.169,10.324ZM35.246,66.363A30.885,30.885,0,0,1,17,60.455a2.066,2.066,0,0,0-2.074-.2L6.264,64.228l3.978-8.666a2.065,2.065,0,0,0-.2-2.074A31.116,31.116,0,1,1,35.246,66.363Zm0,0" fill="#6283e5"/>
    <path id="Контур_44906" data-name="Контур 44906" d="M131.545,91.229h-2.333a6.986,6.986,0,0,0-.758-8.776,1.907,1.907,0,0,0-.151-.151,6.973,6.973,0,0,0-9.788.073L104.821,96.069a16.526,16.526,0,0,0,11.684,28.212h13.813a8.21,8.21,0,0,0,8.2-8.2V98.2a6.982,6.982,0,0,0-6.974-6.973Zm2.843,24.851a4.075,4.075,0,0,1-4.07,4.07H116.505a12.395,12.395,0,0,1-8.764-21.16L121.435,85.3a2.843,2.843,0,0,1,4.021,4.021l-2.518,2.518a2.065,2.065,0,0,0,1.46,3.525h7.147a2.847,2.847,0,0,1,2.843,2.843Zm0,0" transform="translate(-86.216 -69.272)" fill="#6283e5"/>
  </g>
</svg>
