<svg xmlns="http://www.w3.org/2000/svg" width="60.361" height="60.361" viewBox="0 0 60.361 60.361"><path d="M56.811,56.811v-7.1h-7.1v-7.1H44.383v-7.1h-7.1a7.114,7.114,0,0,0-5.326-6.877V24.706a10.678,10.678,0,0,0,7.416-5.125l2.721-1.36a10.509,10.509,0,0,0,5.841-9.451V3.551h-7.1V0h-21.3V3.551h-7.1V8.769a10.509,10.509,0,0,0,5.841,9.451h0l2.721,1.36a10.678,10.678,0,0,0,7.416,5.125V28.63a7.114,7.114,0,0,0-5.326,6.877h-7.1v7.1H10.652v7.1h-7.1v7.1H0v3.551H60.361V56.811ZM44.383,7.1V8.769a6.975,6.975,0,0,1-3.551,6.1V7.1ZM19.529,14.87a6.975,6.975,0,0,1-3.551-6.1V7.1h3.551Zm3.551-.667V3.551h14.2V14.2a7.1,7.1,0,1,1-14.2,0Zm7.1,17.753a3.555,3.555,0,0,1,3.551,3.551h-7.1A3.555,3.555,0,0,1,30.181,31.956Zm-10.652,7.1h21.3v3.551h-21.3Zm-5.326,7.1H46.159v3.551H14.2ZM7.1,56.811V53.26H53.26v3.551Z" fill="#fff"/><path d="M225,60h7.1v3.551H225Z" transform="translate(-198.37 -52.899)" fill="#fff"/></svg>