<svg xmlns="http://www.w3.org/2000/svg" width="64" height="64" viewBox="0 0 64 64"><path d="M14.42,355.861a6.588,6.588,0,1,0-10.017,0A9.411,9.411,0,0,0,0,363.824v1.882H18.824v-1.882a9.411,9.411,0,0,0-4.4-7.962Zm-7.832-4.273a2.824,2.824,0,1,1,2.824,2.824,2.827,2.827,0,0,1-2.824-2.824Zm-2.5,10.353a5.648,5.648,0,0,1,10.649,0Z" transform="translate(0 -301.706)" fill="#fff"/><path d="M194.42,355.861a6.588,6.588,0,1,0-10.017,0,9.411,9.411,0,0,0-4.4,7.962v1.882h18.824v-1.882A9.411,9.411,0,0,0,194.42,355.861Zm-7.832-4.273a2.824,2.824,0,1,1,2.824,2.824A2.827,2.827,0,0,1,186.588,351.588Zm-2.5,10.353a5.648,5.648,0,0,1,10.649,0Z" transform="translate(-157.412 -301.706)" fill="#fff"/><path d="M374.42,355.861a6.588,6.588,0,1,0-10.017,0,9.411,9.411,0,0,0-4.4,7.962v1.882h18.824v-1.882A9.411,9.411,0,0,0,374.42,355.861Zm-7.832-4.273a2.824,2.824,0,1,1,2.824,2.824A2.827,2.827,0,0,1,366.588,351.588Zm-2.5,10.353a5.648,5.648,0,0,1,10.649,0Z" transform="translate(-314.824 -301.706)" fill="#fff"/><path d="M63.765,35.765H82.588v3.765h3.765V35.765h18.824v3.765h3.765V32H86.353V30a15.059,15.059,0,1,0-3.765,0v2H60v7.529h3.765Zm9.412-20.706A11.294,11.294,0,1,1,84.471,26.353,11.307,11.307,0,0,1,73.176,15.059Z" transform="translate(-52.471)" fill="#fff"/><path d="M240,60h3.765v7.529H240Z" transform="translate(-209.882 -52.471)" fill="#fff"/><path d="M240,150h3.765v3.765H240Z" transform="translate(-209.882 -131.176)" fill="#fff"/></svg>