<svg xmlns="http://www.w3.org/2000/svg" width="18.214" height="17" viewBox="0 0 18.214 17"><defs><style>.a{fill:#e45868;}</style></defs><path class="a" d="M16.393,2H1.821A1.846,1.846,0,0,0,0,3.821V13.839a1.846,1.846,0,0,0,1.821,1.821h8.669l2.946,3.24a.3.3,0,0,0,.528-.2V15.661h2.429a1.846,1.846,0,0,0,1.821-1.821V3.821A1.846,1.846,0,0,0,16.393,2ZM4.857,9.893A1.214,1.214,0,1,1,6.071,8.679,1.216,1.216,0,0,1,4.857,9.893Zm4.25,0a1.214,1.214,0,1,1,1.214-1.214A1.216,1.216,0,0,1,9.107,9.893Zm4.25,0a1.214,1.214,0,1,1,1.214-1.214A1.216,1.216,0,0,1,13.357,9.893Z" transform="translate(0 -2)"/></svg>