<svg xmlns="http://www.w3.org/2000/svg" width="19.68" height="20.5" viewBox="0 0 19.68 20.5">
  <g id="Сгруппировать_7062" data-name="Сгруппировать 7062" transform="translate(-1073.445 -463)">
    <g id="right-arrow" transform="translate(1073.445 463)">
      <g id="Сгруппировать_7061" data-name="Сгруппировать 7061" transform="translate(0 0)">
        <path id="Контур_44610" data-name="Контур 44610" d="M25.852,136.4h0l-4.19-4.17a.8.8,0,0,0-1.131,1.137l2.813,2.8h-9.1a.8.8,0,1,0,0,1.6h9.1l-2.813,2.8a.8.8,0,0,0,1.131,1.137l4.19-4.17h0A.8.8,0,0,0,25.852,136.4Z" transform="translate(-13.445 -132)" fill="#fff"/>
      </g>
    </g>
    <g id="right-arrow-2" data-name="right-arrow" transform="translate(1093.125 483.5) rotate(180)">
      <g id="Сгруппировать_7061-2" data-name="Сгруппировать 7061" transform="translate(0 0)">
        <path id="Контур_44610-2" data-name="Контур 44610" d="M12.407,4.4h0L8.216.233A.8.8,0,0,0,7.085,1.37L9.9,4.17H.8a.8.8,0,0,0,0,1.6H9.9l-2.813,2.8A.8.8,0,0,0,8.216,9.71l4.19-4.17h0A.8.8,0,0,0,12.407,4.4Z" fill="#fff"/>
      </g>
    </g>
  </g>
</svg>
