<svg id="food-and-restaurant" xmlns="http://www.w3.org/2000/svg" width="31" height="31" viewBox="0 0 31 31">
  <g id="Сгруппировать_4803" data-name="Сгруппировать 4803" transform="translate(0 0)">
    <g id="Сгруппировать_4802" data-name="Сгруппировать 4802">
      <circle id="Эллипс_748" data-name="Эллипс 748" cx="1.5" cy="1.5" r="1.5" transform="translate(18.5 6.5)" fill="#7a4f08"/>
      <circle id="Эллипс_749" data-name="Эллипс 749" cx="1.5" cy="1.5" r="1.5" transform="translate(10.5 6.5)" fill="#7a4f08"/>
      <circle id="Эллипс_750" data-name="Эллипс 750" cx="1.5" cy="1.5" r="1.5" transform="translate(17.5 11.5)" fill="#7a4f08"/>
      <circle id="Эллипс_751" data-name="Эллипс 751" cx="1.5" cy="1.5" r="1.5" transform="translate(20.5 25.5)" fill="#7a4f08"/>
      <path id="Контур_2914" data-name="Контур 2914" d="M29.02,16.435A1.211,1.211,0,0,0,31,15.5a15.591,15.591,0,0,0-.363-3.348,1.211,1.211,0,0,0-2.365.521c.066.3.12.6.164.9a5.365,5.365,0,0,0-1.19-.135A4.851,4.851,0,0,0,22.44,17.68H22.4a4.849,4.849,0,0,0-4.844,4.844q0,.076,0,.153a4.853,4.853,0,0,0-3.635,4.691q0,.612.042,1.121A13.078,13.078,0,1,1,26.141,7.894a1.211,1.211,0,1,0,1.969-1.41A15.482,15.482,0,0,0,15.5,0,15.5,15.5,0,0,0,4.54,26.46,15.4,15.4,0,0,0,15.5,31h0c.039,0,.077,0,.116-.006l.039-.005.074-.011.046-.01.065-.017.047-.015.061-.022.045-.019.058-.028.044-.023.054-.033.043-.028.048-.036.043-.034L16.3,30.7l.032-.031.037-.035c.016-.017.031-.034.047-.051l.028-.032c.017-.021.032-.042.047-.063l.02-.027c.017-.025.032-.051.047-.077l.012-.02q.027-.05.049-.1c0-.009.007-.018.01-.027.01-.025.02-.051.028-.077s.009-.031.013-.047.011-.041.016-.062.006-.033.009-.05.007-.043.01-.064,0-.032,0-.048,0-.048,0-.072,0-.018,0-.027,0-.011,0-.017c0-.026,0-.052,0-.078s0-.025,0-.038c0-.031-.008-.062-.014-.093,0-.007,0-.014,0-.02-.008-.037-.017-.073-.028-.109,0-.012-.008-.023-.012-.035s-.016-.048-.026-.072-.012-.027-.019-.041-.019-.041-.03-.061-.016-.028-.024-.042-.014-.025-.021-.038a5.846,5.846,0,0,1-.178-1.778,2.425,2.425,0,0,1,2.422-2.422c.041,0,.088,0,.141,0a1.211,1.211,0,0,0,1.209-1.615,2.422,2.422,0,0,1,3.157-3.07,1.211,1.211,0,0,0,1.615-1.412,2.421,2.421,0,0,1,2.354-2.99,3.16,3.16,0,0,1,1.783.58Z" transform="translate(0 0)" fill="#7a4f08"/>
      <circle id="Эллипс_752" data-name="Эллипс 752" cx="1.5" cy="1.5" r="1.5" transform="translate(5.5 12.5)" fill="#7a4f08"/>
      <circle id="Эллипс_753" data-name="Эллипс 753" cx="1.5" cy="1.5" r="1.5" transform="translate(27.5 26.5)" fill="#7a4f08"/>
      <circle id="Эллипс_754" data-name="Эллипс 754" cx="1.5" cy="1.5" r="1.5" transform="translate(26.5 18.5)" fill="#7a4f08"/>
      <circle id="Эллипс_755" data-name="Эллипс 755" cx="1.5" cy="1.5" r="1.5" transform="translate(7.5 20.5)" fill="#7a4f08"/>
      <circle id="Эллипс_756" data-name="Эллипс 756" cx="1.5" cy="1.5" r="1.5" transform="translate(11.5 15.5)" fill="#7a4f08"/>
    </g>
  </g>
</svg>
