<svg xmlns="http://www.w3.org/2000/svg" width="18" height="18" viewBox="0 0 18 18"><path d="M17.361,0a.643.643,0,0,0-.288.068L12.2,2.5,6.693.056c-.009,0-.019,0-.029-.008A.643.643,0,0,0,6.589.024.667.667,0,0,0,6.511.008a.956.956,0,0,0-.157,0,.667.667,0,0,0-.078.016A.643.643,0,0,0,6.2.047c-.01,0-.02,0-.029.008L.386,2.627A.643.643,0,0,0,0,3.215V17.357a.643.643,0,0,0,.9.588l5.525-2.456,5.525,2.456c.01,0,.02,0,.03.006a.568.568,0,0,0,.487-.011c.01,0,.022,0,.032-.007l5.143-2.571A.643.643,0,0,0,18,14.786V.643A.643.643,0,0,0,17.361,0ZM5.79,14.368l-4.5,2V3.632l4.5-2Zm5.786,2-4.5-2V1.632l4.5,2Zm5.143-1.979-3.857,1.929V3.612l3.857-1.929Z" transform="translate(-0.004 0)" fill="#bed0e2"/></svg>