<svg xmlns="http://www.w3.org/2000/svg" width="21.358" height="21" viewBox="0 0 21.358 21">
  <g id="edit" transform="translate(0 -4.296)">
    <g id="Сгруппировать_7247" data-name="Сгруппировать 7247" transform="translate(0 5.582)">
      <g id="Сгруппировать_7246" data-name="Сгруппировать 7246" transform="translate(0 0)">
        <path id="Контур_44883" data-name="Контур 44883" d="M16.6,47.442a1.037,1.037,0,0,0-1.038,1.038v3.259a1.038,1.038,0,0,1-1.038,1.038H3.113a1.038,1.038,0,0,1-1.038-1.038V38.251a1.038,1.038,0,0,1,1.038-1.038H9.141a1.038,1.038,0,1,0,0-2.075H3.113A3.116,3.116,0,0,0,0,38.251V51.739a3.116,3.116,0,0,0,3.113,3.113H14.526a3.116,3.116,0,0,0,3.113-3.113V48.48A1.037,1.037,0,0,0,16.6,47.442Z" transform="translate(0 -35.138)" fill="#fff"/>
      </g>
    </g>
    <g id="Сгруппировать_7249" data-name="Сгруппировать 7249" transform="translate(5.976 4.296)">
      <g id="Сгруппировать_7248" data-name="Сгруппировать 7248" transform="translate(0 0)">
        <path id="Контур_44884" data-name="Контур 44884" d="M157.487,5.45a3.994,3.994,0,0,0-5.608-.009l-7.024,7.024a5.415,5.415,0,0,0-1.59,3.845v2.324a1.037,1.037,0,0,0,1.038,1.038h2.324a5.415,5.415,0,0,0,3.846-1.591l7.015-7.015A3.979,3.979,0,0,0,157.487,5.45Zm-8.48,11.163a3.353,3.353,0,0,1-2.38.984H145.34V16.31a3.352,3.352,0,0,1,.983-2.379L150.953,9.3l2.683,2.683ZM156.02,9.6l-.916.916L152.42,7.834l.916-.916A1.9,1.9,0,0,1,156.02,9.6Z" transform="translate(-143.265 -4.296)" fill="#fff"/>
      </g>
    </g>
  </g>
</svg>
