<svg xmlns="http://www.w3.org/2000/svg" width="24.98" height="24.98" viewBox="0 0 24.98 24.98">
  <path id="soccer" d="M21.3,3.661A12.471,12.471,0,1,0,3.682,21.319,12.471,12.471,0,1,0,21.3,3.661ZM17.223,17.853,16.184,16.4l1.7-4.858,1.606-.512,3.939,2.832a10.943,10.943,0,0,1-1.316,4Zm-9.539,0-4.824,0A10.945,10.945,0,0,1,1.518,13.59L5.5,10.858l1.685.58,1.6,4.879Zm-3.15-8.1L1.483,11.84a10.962,10.962,0,0,1,1.95-5.631Zm5.592,6.006L8.643,11.18,12.484,8.3l3.952,2.955-1.585,4.5ZM20.49,9.942,21.679,6.4a10.957,10.957,0,0,1,1.831,5.712ZM20.6,5.025,19.05,9.633l-1.639.523-4.2-3.136,0-1.65L17.146,2.5A11.085,11.085,0,0,1,20.6,5.025ZM15.507,1.883,12.491,4.09l-3-2.211a11.056,11.056,0,0,1,6.019,0Zm-7.658.606,3.918,2.878,0,1.652-4.07,3.046L5.981,9.475,4.543,4.854A11.074,11.074,0,0,1,7.849,2.489ZM3.835,19.316,7.523,19.3l1.122,3.523a11.076,11.076,0,0,1-4.809-3.509Zm6.5,3.989L8.866,18.7,9.991,17.17h5l1.076,1.57-1.46,4.573a11.052,11.052,0,0,1-4.274-.008Zm5.961-.463,1.128-3.536,3.717.01a11.092,11.092,0,0,1-4.845,3.525Zm0,0" transform="translate(0)" fill="#6283e5"/>
</svg>
