<svg xmlns="http://www.w3.org/2000/svg" width="23.439" height="23.439" viewBox="0 0 23.439 23.439"><defs><style>.a{fill:#fbbd00;}.b{fill:#0f9d58;}.c{fill:#31aa52;}.d{fill:#3c79e6;}.e{fill:#cf2d48;}.f{fill:#eb4132;}</style></defs><path class="a" d="M5.494,107.347a6.188,6.188,0,0,1,.876-3.181v-3.951H2.418a11.726,11.726,0,0,0,0,14.264H6.369v-3.951A6.188,6.188,0,0,1,5.494,107.347Z" transform="translate(0 -95.627)"/><path class="b" d="M198.747,373.833,196,376.579l2.747,2.747a11.631,11.631,0,0,0,7.132-2.418v-3.947h-3.947A6.225,6.225,0,0,1,198.747,373.833Z" transform="translate(-187.027 -355.887)"/><path class="c" d="M56.774,325.477l-3.951,3.951a11.907,11.907,0,0,0,1.014,1.155,11.643,11.643,0,0,0,8.287,3.433v-5.494A6.229,6.229,0,0,1,56.774,325.477Z" transform="translate(-50.405 -310.577)"/><path class="d" d="M267.72,200.01a11.823,11.823,0,0,0-.192-2.123l-.1-.563H256v5.494h5.56a6.2,6.2,0,0,1-2.375,2.547l3.947,3.947a11.919,11.919,0,0,0,1.155-1.014A11.643,11.643,0,0,0,267.72,200.01Z" transform="translate(-244.28 -188.291)"/><path class="e" d="M203.149,7.317l.486.486,3.885-3.885-.486-.486A11.643,11.643,0,0,0,198.747,0L196,2.747l2.747,2.747A6.186,6.186,0,0,1,203.149,7.317Z" transform="translate(-187.027 0)"/><path class="f" d="M62.124,5.494V0a11.643,11.643,0,0,0-8.287,3.433,11.9,11.9,0,0,0-1.014,1.155l3.951,3.951a6.229,6.229,0,0,1,5.35-3.045Z" transform="translate(-50.404 0)"/></svg>