<svg xmlns="http://www.w3.org/2000/svg" width="25.02" height="25.02" viewBox="0 0 25.02 25.02">
  <path id="dumbbell" d="M25.02,9.364,21.9,6.241,23.979,4.16,20.86,1.041,18.779,3.123,15.656,0,13.574,2.082,12.533,1.041,9.414,4.159l4.164,4.164L8.323,13.578,4.159,9.414,1.041,12.533l1.041,1.041L0,15.656l3.123,3.123L1.041,20.86,4.16,23.979,6.241,21.9,9.364,25.02l2.082-2.082,1.041,1.041,3.119-3.119L11.442,16.7,16.7,11.442l4.164,4.164,3.119-3.119-1.041-1.041Zm-4.16-6.25L21.906,4.16,20.861,5.2,19.815,4.159Zm-5.2-1.041,7.291,7.291L21.9,10.41,14.611,3.119ZM4.16,21.905,3.114,20.86l1.045-1.045L5.2,20.861Zm5.2,1.041L2.073,15.656l1.045-1.045L10.409,21.9Zm3.123-1.041,0,0L3.118,12.537l0,0,1.045-1.045,9.373,9.373ZM10.405,15.66,9.36,14.615,14.615,9.36l1.045,1.045Zm11.5-3.173L20.86,13.532,11.488,4.159l1.045-1.045,0,0L21.9,12.483Z" fill="#6283e5"/>
</svg>
