<svg xmlns="http://www.w3.org/2000/svg" width="24" height="24" viewBox="0 0 24 24">
  <path id="XMLID_1191_" d="M21.231,4.385a.692.692,0,0,0,.384-.116l2.077-1.385A.692.692,0,0,0,24,2.308V.692A.692.692,0,0,0,23.308,0H.692A.692.692,0,0,0,0,.692V2.308a.692.692,0,0,0,.308.576L2.385,4.268a.692.692,0,0,0,.384.116h.923v8.464a5.769,5.769,0,1,0,4.154,0V4.385h8.308v8.464a5.769,5.769,0,1,0,4.154,0V4.385ZM1.385,1.937V1.385H22.615v.553L21.021,3H2.979ZM4.833,16.916a1.615,1.615,0,1,1-.679,1.315A1.625,1.625,0,0,1,4.833,16.916ZM6.4,15.3a3.027,3.027,0,0,0-1.319.013V13.9a4.456,4.456,0,0,1,1.385,0v1.409Zm3.758,2.934A4.385,4.385,0,1,1,3.692,14.37v1.7a3,3,0,1,0,4.154,0v-1.7A4.388,4.388,0,0,1,10.154,18.231ZM6.462,12.5a5.833,5.833,0,0,0-1.385,0V4.385H6.462Zm10.833,4.413a1.615,1.615,0,1,1-.679,1.315A1.625,1.625,0,0,1,17.295,16.916ZM18.86,15.3a3.029,3.029,0,0,0-1.321.013V13.9a4.456,4.456,0,0,1,1.385,0v1.409Zm3.755,2.933a4.385,4.385,0,1,1-6.462-3.861v1.7a3,3,0,1,0,4.154,0v-1.7A4.388,4.388,0,0,1,22.615,18.231ZM18.923,12.5a5.833,5.833,0,0,0-1.385,0V4.385h1.385Z" fill="#6283e5"/>
</svg>
