<svg  id="like" xmlns="http://www.w3.org/2000/svg" width="20" height="20" 
	 viewBox="0 0 428.3 387.2">

<g>
	<path  d="M298.8,49.5c15.7,0,31.4,4.6,45.4,13.2c13.8,8.5,25,20.4,32.4,34.2c8.2,15.5,18.2,46.9-6.5,84.1
		c-6,6.9-42,42.8-73.8,74.5c-29,28.9-60.9,60.8-83,83.3C165.6,292.5,67.4,193,55.7,177.4c-8.8-16.8-13.2-33.2-13.1-48.8
		c0.1-13.7,3.7-26.4,10.6-37.9c15-24.9,44.3-40.9,74.8-40.9c17.9,0,44,5.5,66.7,31.6c4.7,5.4,11.4,8.5,18.6,8.6c0.1,0,0.2,0,0.3,0
		c7,0,13.7-3,18.5-8.2C251.2,60.7,274.3,49.5,298.8,49.5 M298.8,24.5c-29,0-59.3,11.9-85.3,40.5c-24.4-28-55.4-40.2-85.5-40.2
		c-74,0-142.7,73.2-94.2,164.7c3.6,9.9,148.3,154.9,180.3,184.6c37.9-40.3,170.9-170.5,176.2-178.3
		C446.3,112.9,377.6,24.5,298.8,24.5L298.8,24.5z" stroke="#FFFFFF" fill="#FFFFFF"/>
</g>
</svg>
