<svg xmlns="http://www.w3.org/2000/svg" width="59.971" height="59.998" viewBox="0 0 59.971 59.998"><g transform="translate(-0.116)"><path d="M54.269,2.254A31.153,31.153,0,0,0,42.043,0,31.154,31.154,0,0,0,29.818,2.254C26.066,3.909,24,6.285,24,8.943V24.091A18.376,18.376,0,1,0,34.652,50.363a36.176,36.176,0,0,0,7.392.741A31.154,31.154,0,0,0,54.269,48.85c3.752-1.655,5.818-4.031,5.818-6.689V8.943c0-2.658-2.066-5.034-5.818-6.689ZM31.237,5.471A27.61,27.61,0,0,1,42.043,3.516,27.61,27.61,0,0,1,52.85,5.471c2.3,1.013,3.722,2.344,3.722,3.473s-1.426,2.46-3.722,3.473a27.61,27.61,0,0,1-10.806,1.955,27.61,27.61,0,0,1-10.806-1.955c-2.3-1.013-3.722-2.343-3.722-3.473S28.942,6.483,31.237,5.471ZM18.491,56.482a14.86,14.86,0,1,1,14.86-14.86,14.877,14.877,0,0,1-14.86,14.86ZM52.85,45.634a27.61,27.61,0,0,1-10.806,1.955,33.122,33.122,0,0,1-6-.532,18.278,18.278,0,0,0,.8-4.614,37.246,37.246,0,0,0,5.2.357,31.154,31.154,0,0,0,12.225-2.254,15.493,15.493,0,0,0,2.3-1.243v2.858c0,1.129-1.426,2.46-3.722,3.473Zm0-8.3a27.61,27.61,0,0,1-10.806,1.955,33.218,33.218,0,0,1-5.385-.426,18.221,18.221,0,0,0-1.518-5,36.5,36.5,0,0,0,6.9.642,31.154,31.154,0,0,0,12.225-2.254A15.493,15.493,0,0,0,56.571,31v2.858c0,1.129-1.426,2.46-3.722,3.473Zm0-8.3A27.61,27.61,0,0,1,42.043,30.98a29.125,29.125,0,0,1-9.829-1.562,18.5,18.5,0,0,0-4.7-3.8V22.694a15.488,15.488,0,0,0,2.3,1.243,31.154,31.154,0,0,0,12.225,2.254,31.154,31.154,0,0,0,12.225-2.254,15.493,15.493,0,0,0,2.3-1.243v2.858c0,1.129-1.426,2.46-3.722,3.473Zm0-8.3a27.61,27.61,0,0,1-10.806,1.955A27.61,27.61,0,0,1,31.237,20.72c-2.3-1.013-3.722-2.343-3.722-3.473V14.389a15.5,15.5,0,0,0,2.3,1.243,31.154,31.154,0,0,0,12.225,2.254,31.154,31.154,0,0,0,12.225-2.254,15.493,15.493,0,0,0,2.3-1.243v2.858c0,1.129-1.426,2.46-3.722,3.473Z" fill="#fff"/><path d="M110.466,271.507H106.7a1.539,1.539,0,0,1,0-3.079h6.366v-3.516h-3.185v-2.372h-3.516v2.384a5.054,5.054,0,0,0,.334,10.1h3.77a1.673,1.673,0,0,1,0,3.345h-8.125v3.516h4.02v2.372h3.516v-2.372h.589a5.188,5.188,0,0,0,0-10.377Z" transform="translate(-89.628 -231.775)" fill="#fff"/></g></svg>