<svg xmlns="http://www.w3.org/2000/svg" width="35.397" height="36.381" viewBox="0 0 35.397 36.381">
  <g id="settingsGreen" transform="translate(-5.768)">
    <g id="Сгруппировать_7252" data-name="Сгруппировать 7252" transform="translate(5.768)">
      <path id="Контур_44891" data-name="Контур 44891" d="M40.816,22.974l-3.838-3.011A14.285,14.285,0,0,0,37.1,18.19a14.285,14.285,0,0,0-.127-1.774l3.847-3.011a.907.907,0,0,0,.218-1.164L37.4,5.939a.9.9,0,0,0-1.11-.391L31.766,7.376a13.8,13.8,0,0,0-3.074-1.792L28.01.764A.936.936,0,0,0,27.1,0H19.824a.918.918,0,0,0-.9.764l-.682,4.82a13.461,13.461,0,0,0-3.074,1.792L10.638,5.548a.91.91,0,0,0-1.11.391l-3.638,6.3a.911.911,0,0,0,.218,1.164l3.838,3.011a14.285,14.285,0,0,0-.127,1.774,14.285,14.285,0,0,0,.127,1.774L6.108,22.974a.907.907,0,0,0-.218,1.164l3.638,6.3a.9.9,0,0,0,1.11.391L15.167,29A13.8,13.8,0,0,0,18.241,30.8l.682,4.82a.918.918,0,0,0,.9.764H27.1a.918.918,0,0,0,.9-.764l.682-4.82A13.461,13.461,0,0,0,31.757,29l4.529,1.828a.91.91,0,0,0,1.11-.391l3.638-6.3A.911.911,0,0,0,40.816,22.974ZM23.462,24.557a6.367,6.367,0,1,1,6.367-6.367A6.362,6.362,0,0,1,23.462,24.557Z" transform="translate(-5.768)" fill="#56c46f"/>
    </g>
  </g>
</svg>
