<svg xmlns="http://www.w3.org/2000/svg" width="19.186" height="25.188" viewBox="0 0 19.186 25.188">
  <path id="football-field" d="M0,0V25.188H19.186V0ZM5.9,3V1.476h7.379V3ZM10.87,4.477a1.474,1.474,0,0,1-2.555,0Zm-6.443-3v3H6.735a2.952,2.952,0,0,0,5.717,0h2.307v-3H17.71v10.38H13.959a4.428,4.428,0,0,0-8.731,0H1.476V1.476Zm2.307,10.38a2.952,2.952,0,0,1,5.717,0Zm5.717,1.476a2.952,2.952,0,0,1-5.717,0Zm.831,8.855v1.525H5.9V22.187ZM8.316,20.711a1.474,1.474,0,0,1,2.555,0Zm6.443,3v-3H12.451a2.952,2.952,0,0,0-5.717,0H4.427v3H1.476V13.332H5.227a4.428,4.428,0,0,0,8.731,0H17.71v10.38Zm0,0" fill="#6283e5"/>
</svg>
