<svg xmlns="http://www.w3.org/2000/svg" width="35.398" height="32.098" viewBox="0 0 35.398 32.098">
  <g id="warning-green" transform="translate(0 -22.643)">
    <path id="Контур_44893" data-name="Контур 44893" d="M34.69,46.784,22.289,25.3a5.277,5.277,0,0,0-9.166,0L.714,46.784A5.3,5.3,0,0,0,5.3,54.741H30.063A5.329,5.329,0,0,0,34.69,46.784ZM17.7,49.976a1.975,1.975,0,1,1,0-3.949,1.975,1.975,0,0,1,0,3.949ZM19.5,37.21c-.087,1.53-.182,3.053-.27,4.583-.044.5-.044.947-.044,1.435A1.487,1.487,0,0,1,17.7,44.664a1.455,1.455,0,0,1-1.486-1.392c-.131-2.383-.27-4.722-.4-7.1-.044-.627-.087-1.261-.138-1.887a2.145,2.145,0,0,1,1.53-2.157,1.981,1.981,0,0,1,2.3,1.122,2.354,2.354,0,0,1,.182.991C19.636,35.236,19.542,36.227,19.5,37.21Z" transform="translate(0)" fill="#56c46f"/>
  </g>
</svg>
