<svg id="check-mark_1_" data-name="check-mark (1)" xmlns="http://www.w3.org/2000/svg" width="19.251" height="19.2" viewBox="0 0 19.251 19.2">
  <g id="Сгруппировать_7241" data-name="Сгруппировать 7241" transform="translate(0 0)">
    <g id="Сгруппировать_7240" data-name="Сгруппировать 7240">
      <path id="Контур_44878" data-name="Контур 44878" d="M15.747.062H3.5A3.5,3.5,0,0,0,0,3.567V15.756a3.5,3.5,0,0,0,3.5,3.505H15.747a3.505,3.505,0,0,0,3.5-3.505V3.567A3.5,3.5,0,0,0,15.747.062Zm.117,7.963L9.242,14.647a1.5,1.5,0,0,1-2.119,0L3.841,11.365A1.5,1.5,0,1,1,5.959,9.246L7.915,11.2a.378.378,0,0,0,.535,0l5.295-5.3a1.5,1.5,0,1,1,2.118,2.118Z" transform="translate(0 -0.062)" fill="#6fb77f"/>
    </g>
  </g>
</svg>
