<svg id="file-upload" xmlns="http://www.w3.org/2000/svg" width="46.129" height="42.886" viewBox="0 0 46.129 42.886">
  <path id="Контур_2830" data-name="Контур 2830" d="M38.922,0H7.208A7.216,7.216,0,0,0,0,7.207V32.434a7.216,7.216,0,0,0,7.208,7.208H31.8a1.8,1.8,0,0,0,0-3.6H25.167l-4.143-5.375,13.129-16.7,8.838,9.768a1.8,1.8,0,0,0,3.138-1.209V7.207A7.216,7.216,0,0,0,38.922,0Zm3.6,17.847L35.393,9.963a1.8,1.8,0,0,0-2.753.1L18.754,27.719,14.041,21.6a1.8,1.8,0,0,0-1.427-.7h0a1.8,1.8,0,0,0-1.427.7L7.22,26.76a1.8,1.8,0,0,0,2.857,2.2l2.539-3.3,8,10.381H7.208a3.608,3.608,0,0,1-3.6-3.6V7.207a3.608,3.608,0,0,1,3.6-3.6H38.922a3.608,3.608,0,0,1,3.6,3.6Zm0,0" transform="translate(0 0)" fill="#b8c6d4"/>
  <path id="Контур_2831" data-name="Контур 2831" d="M85.406,72a5.406,5.406,0,1,0,5.406,5.406A5.412,5.412,0,0,0,85.406,72Zm0,7.208a1.8,1.8,0,1,1,1.8-1.8A1.8,1.8,0,0,1,85.406,79.208Zm0,0" transform="translate(-72.792 -65.513)" fill="#b8c6d4"/>
  <path id="Контур_2832" data-name="Контур 2832" d="M363.4,289.346l-.016-.016a4.491,4.491,0,0,0-6.373-.008l-3.479,3.431a1.8,1.8,0,0,0,2.531,2.566l2.329-2.3v10.114a1.8,1.8,0,0,0,3.6,0V293.077l2.229,2.3a1.8,1.8,0,1,0,2.589-2.506Zm0,0" transform="translate(-321.196 -262.052)" fill="#b8c6d4"/>
</svg>
