<svg xmlns="http://www.w3.org/2000/svg" width="27.5" height="27.437" viewBox="0 0 27.5 27.437">
  <path style="fill:#BAC4DF" id="real-estate_1_" data-name="real-estate (1)" d="M27.5,11.546a2.867,2.867,0,0,0-1.851-2.479,7.573,7.573,0,0,0-2.731-.71L13.756,0,0,12.55l1.447,1.586L2.7,13v11.22a3.225,3.225,0,0,0,3.221,3.221h7.623a8.038,8.038,0,0,0,3.517-.742,4.547,4.547,0,0,0,.778-.487,4.539,4.539,0,0,0,.778.487,8.038,8.038,0,0,0,3.517.742,8.039,8.039,0,0,0,3.517-.742A2.867,2.867,0,0,0,27.5,24.215V11.707h-.006c0-.053.006-.107.006-.161Zm-2.147,0c0,.037-.115.284-.664.558a5.957,5.957,0,0,1-2.557.516,5.959,5.959,0,0,1-2.557-.516c-.549-.274-.664-.521-.664-.558s.116-.284.664-.558a5.959,5.959,0,0,1,2.557-.516,5.957,5.957,0,0,1,2.557.516C25.237,11.262,25.352,11.509,25.352,11.546ZM4.845,24.215V11.036l8.912-8.13,6.217,5.672a6.574,6.574,0,0,0-1.359.489,2.867,2.867,0,0,0-1.851,2.479c0,.054,0,.108.006.161h-.006v5.675a8.088,8.088,0,0,0-3.221-.629,8.036,8.036,0,0,0-3.517.742,2.867,2.867,0,0,0-1.851,2.479c0,.018,0,.036,0,.054h0v4.187a2.234,2.234,0,0,0,.275,1.074H5.918a1.075,1.075,0,0,1-1.074-1.074Zm11.918-4.187c0,.033-.12.268-.651.525a6.185,6.185,0,0,1-2.57.5,5.959,5.959,0,0,1-2.557-.516c-.549-.274-.664-.521-.664-.558s.115-.284.664-.558a5.959,5.959,0,0,1,2.557-.516,5.755,5.755,0,0,1,2.544.536c.517.268.677.527.677.592ZM16.1,24.773a5.959,5.959,0,0,1-2.557.516,5.959,5.959,0,0,1-2.557-.516c-.549-.274-.664-.521-.664-.558V22.589a8.308,8.308,0,0,0,3.221.606,8.388,8.388,0,0,0,3.221-.581v1.6c0,.037-.115.284-.664.558Zm8.589,0a5.957,5.957,0,0,1-2.557.516,5.959,5.959,0,0,1-2.557-.516c-.549-.274-.664-.521-.664-.558V22.589a8.865,8.865,0,0,0,6.442,0v1.626c0,.037-.115.284-.664.558Zm0-4.241a5.957,5.957,0,0,1-2.557.516,5.959,5.959,0,0,1-2.557-.516c-.549-.274-.664-.521-.664-.558V18.456a8.865,8.865,0,0,0,6.442,0v1.519c0,.037-.115.284-.664.558Zm0-4.134a5.957,5.957,0,0,1-2.557.516,5.959,5.959,0,0,1-2.557-.516c-.549-.274-.664-.521-.664-.558v-1.68a8.865,8.865,0,0,0,6.442,0v1.68c0,.037-.115.284-.664.558Zm0,0" transform="translate(0.001 0)" fill="#bac4df"/>
</svg>
