<svg xmlns="http://www.w3.org/2000/svg" width="27.5" height="27.5" viewBox="0 0 27.5 27.5">
    <path id="user_2_" data-name="user" d="M13.75,27.5A13.75,13.75,0,0,1,4.027,4.027,13.75,13.75,0,0,1,23.473,23.473,13.66,13.66,0,0,1,13.75,27.5Zm0-25.352a11.6,11.6,0,1,0,11.6,11.6A11.615,11.615,0,0,0,13.75,2.148ZM13.7,14.77a5.156,5.156,0,1,1,5.156-5.156A5.162,5.162,0,0,1,13.7,14.77Zm0-8.164A3.008,3.008,0,1,0,16.7,9.614,3.011,3.011,0,0,0,13.7,6.606ZM20.5,21.026a1.074,1.074,0,0,0,.15-1.512A7.932,7.932,0,0,0,14.495,16.6H13.22a7.932,7.932,0,0,0-6.158,2.918,1.074,1.074,0,0,0,1.662,1.361,5.791,5.791,0,0,1,4.5-2.131h1.275a5.791,5.791,0,0,1,4.5,2.131,1.074,1.074,0,0,0,1.512.15Z" fill="#6283e5"/>
</svg>
