<svg xmlns="http://www.w3.org/2000/svg" width="30.993" height="30.91" viewBox="0 0 30.993 30.91">
  <g id="check-mark_1_" data-name="check-mark (1)" transform="translate(0 -0.062)">
    <g id="Сгруппировать_7241" data-name="Сгруппировать 7241" transform="translate(0 0.062)">
      <g id="Сгруппировать_7240" data-name="Сгруппировать 7240">
        <path id="Контур_44878" data-name="Контур 44878" d="M25.351.062H5.642A5.643,5.643,0,0,0,0,5.705V25.329a5.642,5.642,0,0,0,5.642,5.643H25.351a5.643,5.643,0,0,0,5.642-5.643V5.705A5.642,5.642,0,0,0,25.351.062Zm.188,12.82L14.879,23.542a2.411,2.411,0,0,1-3.411,0L6.184,18.259a2.412,2.412,0,1,1,3.41-3.412L12.743,18a.608.608,0,0,0,.861,0l8.524-8.525a2.411,2.411,0,1,1,3.41,3.41Z" transform="translate(0 -0.062)" fill="#e45868"/>
      </g>
    </g>
  </g>
</svg>
