<svg id="list" xmlns="http://www.w3.org/2000/svg" width="24" height="24" viewBox="0 0 24 24">
  <path id="Контур_44546" data-name="Контур 44546" d="M11.592,0H3.936V1.412H0V24H15.527V1.412H11.592ZM5.342,1.406h4.844V2.824H5.342Zm8.779,1.412V22.594H1.406V2.818H3.936V4.23h7.656V2.818Z" transform="translate(0)" fill="#fff"/>
  <path id="Контур_44547" data-name="Контур 44547" d="M75.25,180.75h1.412v1.406H75.25Z" transform="translate(-71.723 -172.277)" fill="#fff"/>
  <path id="Контур_44548" data-name="Контур 44548" d="M135.5,180.75h5.648v1.406H135.5Z" transform="translate(-129.148 -172.277)" fill="#fff"/>
  <path id="Контур_44549" data-name="Контур 44549" d="M75.25,241h1.412v1.406H75.25Z" transform="translate(-71.723 -229.703)" fill="#fff"/>
  <path id="Контур_44550" data-name="Контур 44550" d="M135.5,241h5.648v1.406H135.5Z" transform="translate(-129.148 -229.703)" fill="#fff"/>
  <path id="Контур_44551" data-name="Контур 44551" d="M75.25,301.25h1.412v1.406H75.25Z" transform="translate(-71.723 -287.129)" fill="#fff"/>
  <path id="Контур_44552" data-name="Контур 44552" d="M135.5,301.25h5.648v1.406H135.5Z" transform="translate(-129.148 -287.129)" fill="#fff"/>
  <path id="Контур_44553" data-name="Контур 44553" d="M75.25,361.5h1.412v1.406H75.25Z" transform="translate(-71.723 -344.555)" fill="#fff"/>
  <path id="Контур_44554" data-name="Контур 44554" d="M135.5,361.5h5.648v1.406H135.5Z" transform="translate(-129.148 -344.555)" fill="#fff"/>
  <path id="Контур_44555" data-name="Контур 44555" d="M365.73,2.824V1.412h-1.412V0h-1.406V1.412H361.5v19.3a2.119,2.119,0,0,0,1.412,1.995V24h1.406V22.708a2.119,2.119,0,0,0,1.412-1.995V4.23h1.418V9.176h1.406V2.824Zm-1.406-.006v2.83h-1.418V2.818Zm0,4.236V8.473h-1.418V7.055Zm-.709,14.367a.71.71,0,0,1-.709-.709V9.879h1.418V20.713A.71.71,0,0,1,363.615,21.422Z" transform="translate(-344.555)" fill="#fff"/>
</svg>
