<svg id="information" xmlns="http://www.w3.org/2000/svg" width="20.003" height="20.003" viewBox="0 0 20.003 20.003">
  <path id="Контур_44557" data-name="Контур 44557" d="M10,0A10,10,0,1,0,20,10,10.013,10.013,0,0,0,10,0Zm0,18.185A8.183,8.183,0,1,1,18.185,10,8.192,8.192,0,0,1,10,18.185Z" fill="#fff"/>
  <path id="Контур_44558" data-name="Контур 44558" d="M146.214,70a1.212,1.212,0,1,0,1.212,1.213A1.214,1.214,0,0,0,146.214,70Z" transform="translate(-136.213 -65.757)" fill="#fff"/>
  <path id="Контур_44559" data-name="Контур 44559" d="M150.909,140a.909.909,0,0,0-.909.909v5.455a.909.909,0,1,0,1.818,0v-5.455A.909.909,0,0,0,150.909,140Z" transform="translate(-140.908 -131.514)" fill="#fff"/>
</svg>
