<svg xmlns="http://www.w3.org/2000/svg" width="20.15" height="21.617" viewBox="0 0 20.15 21.617">
  <g id="trash" transform="translate(-17.379)">
    <g id="Сгруппировать_4476" data-name="Сгруппировать 4476" transform="translate(17.379 3.245)">
      <g id="Сгруппировать_4475" data-name="Сгруппировать 4475" transform="translate(0)">
        <g id="Сгруппировать_4474" data-name="Сгруппировать 4474">
          <path id="Контур_2782" data-name="Контур 2782" d="M306.866,175.118l-1.692-.062-.367,10.018,1.692.062Z" transform="translate(-292.672 -170.91)" fill="#e45868"/>
          <rect id="Прямоугольник_5363" data-name="Прямоугольник 5363" width="1.693" height="10.018" transform="translate(9.228 4.177)" fill="#e45868"/>
          <path id="Контур_2783" data-name="Контур 2783" d="M160.478,185.067l-.367-10.018-1.692.062.367,10.018Z" transform="translate(-152.464 -170.904)" fill="#e45868"/>
          <path id="Контур_2784" data-name="Контур 2784" d="M17.379,76.867V78.56h1.764l1.4,15.906a.846.846,0,0,0,.843.772H33.493a.846.846,0,0,0,.843-.773l1.4-15.906h1.793V76.867ZM32.717,93.545H22.162L20.843,78.56H34.036Z" transform="translate(-17.379 -76.867)" fill="#e45868"/>
        </g>
      </g>
    </g>
    <g id="Сгруппировать_4478" data-name="Сгруппировать 4478" transform="translate(23.277)">
      <g id="Сгруппировать_4477" data-name="Сгруппировать 4477">
        <path id="Контур_2785" data-name="Контур 2785" d="M164.018,0h-5.531a1.413,1.413,0,0,0-1.411,1.411V4.092h1.693v-2.4h4.967v2.4h1.693V1.411A1.413,1.413,0,0,0,164.018,0Z" transform="translate(-157.076)" fill="#e45868"/>
      </g>
    </g>
  </g>
</svg>
