<svg id="XMLID_14_" xmlns="http://www.w3.org/2000/svg" width="21" height="21" viewBox="0 0 21 21">
  <path id="XMLID_15_" d="M.955,21H20.045A.955.955,0,0,0,21,20.045V2.864a.955.955,0,0,0-.955-.955H14.636V.955a.955.955,0,0,0-1.909,0v.955H8.273V.955a.955.955,0,0,0-1.909,0v.955H.955A.955.955,0,0,0,0,2.864V20.045A.955.955,0,0,0,.955,21Zm.955-1.909V7.636H19.091V19.091ZM19.091,3.818V5.727H1.909V3.818Z" fill="#6283e5"/>
  <path id="XMLID_19_" d="M111.006,165.279l-3.143,3.143-1.234-1.234a.955.955,0,1,0-1.35,1.35l1.909,1.909a.955.955,0,0,0,1.35,0l3.818-3.818a.954.954,0,1,0-1.35-1.35Z" transform="translate(-98.318 -154.5)" fill="#6283e5"/>
</svg>
