<svg id="instagram" xmlns="http://www.w3.org/2000/svg" width="26.658" height="26.658" viewBox="0 0 26.658 26.658">
  <g id="Сгруппировать_607" data-name="Сгруппировать 607">
    <g id="Сгруппировать_606" data-name="Сгруппировать 606">
      <path id="Контур_2174" data-name="Контур 2174" d="M18.327,0h-10A8.331,8.331,0,0,0,0,8.331v10a8.331,8.331,0,0,0,8.331,8.331h10a8.331,8.331,0,0,0,8.331-8.331v-10A8.331,8.331,0,0,0,18.327,0Zm5.831,18.327a5.838,5.838,0,0,1-5.831,5.831h-10A5.838,5.838,0,0,1,2.5,18.327v-10A5.838,5.838,0,0,1,8.331,2.5h10a5.838,5.838,0,0,1,5.831,5.831Z" fill="#fe708d"/>
    </g>
  </g>
  <g id="Сгруппировать_609" data-name="Сгруппировать 609" transform="translate(6.664 6.664)">
    <g id="Сгруппировать_608" data-name="Сгруппировать 608">
      <path id="Контур_2175" data-name="Контур 2175" d="M134.664,128a6.664,6.664,0,1,0,6.664,6.664A6.665,6.665,0,0,0,134.664,128Zm0,10.83a4.165,4.165,0,1,1,4.165-4.165A4.171,4.171,0,0,1,134.664,138.83Z" transform="translate(-128 -128)" fill="#fe708d"/>
    </g>
  </g>
  <g id="Сгруппировать_611" data-name="Сгруппировать 611" transform="translate(19.605 5.277)">
    <g id="Сгруппировать_610" data-name="Сгруппировать 610">
      <ellipse id="Эллипс_654" data-name="Эллипс 654" cx="0.888" cy="0.888" rx="0.888" ry="0.888" fill="#fe708d"/>
    </g>
  </g>
</svg>
