<svg xmlns="http://www.w3.org/2000/svg" width="28.396" height="23.063" viewBox="0 0 28.396 23.063">
  <path id="twitter_-_FontAwesome" data-name="twitter - FontAwesome" d="M28.4,2.739a12.2,12.2,0,0,1-2.919,3.009Q25.5,6,25.5,6.5a16.533,16.533,0,0,1-.685,4.676,16.9,16.9,0,0,1-2.081,4.477,17.6,17.6,0,0,1-3.324,3.793,14.8,14.8,0,0,1-4.649,2.631,17.013,17.013,0,0,1-5.82.982A16.161,16.161,0,0,1,0,20.45a12.456,12.456,0,0,0,1.405.072,11.394,11.394,0,0,0,7.225-2.486A5.832,5.832,0,0,1,3.189,14a7.373,7.373,0,0,0,1.1.09,6.021,6.021,0,0,0,1.532-.2,5.726,5.726,0,0,1-3.342-2.009,5.623,5.623,0,0,1-1.324-3.7V8.108a5.774,5.774,0,0,0,2.631.739A5.813,5.813,0,0,1,1.892,6.775,5.671,5.671,0,0,1,1.189,4a5.7,5.7,0,0,1,.793-2.937,16.5,16.5,0,0,0,5.306,4.3,16.216,16.216,0,0,0,6.694,1.793,6.464,6.464,0,0,1-.144-1.333A5.609,5.609,0,0,1,15.54,1.7a5.834,5.834,0,0,1,8.369.135A11.411,11.411,0,0,0,27.6.432,5.65,5.65,0,0,1,25.045,3.64,11.6,11.6,0,0,0,28.4,2.739Z" fill="#67b3ff"/>
</svg>
