<svg xmlns="http://www.w3.org/2000/svg" width="32.588" height="32.626" viewBox="0 0 32.588 32.626">
  <g id="growing" transform="translate(-0.295)">
    <path id="Контур_44900" data-name="Контур 44900" d="M90.974,339.582H96.71v-7.648H90.974Zm1.912-5.736H94.8v3.824H92.886Z" transform="translate(-84.9 -310.78)" fill="#fff"/>
    <path id="Контур_44901" data-name="Контур 44901" d="M210.974,311.494h5.736v-9.56h-5.736Zm1.912-7.648H214.8v5.736h-1.912Z" transform="translate(-197.252 -282.692)" fill="#fff"/>
    <path id="Контур_44902" data-name="Контур 44902" d="M330.974,255.317h5.736V241.934h-5.736Zm1.912-11.471H334.8v9.56h-1.912Z" transform="translate(-309.605 -226.515)" fill="#fff"/>
    <path id="Контур_44903" data-name="Контур 44903" d="M98.622,153.846h2.432a15.087,15.087,0,0,1-10.08,3.824v1.912a17.112,17.112,0,0,0,11.471-4.415v2.5h1.912v-5.736H98.622Z" transform="translate(-84.9 -142.251)" fill="#fff"/>
    <path id="Контур_44904" data-name="Контур 44904" d="M32.883,14.265l-3.866-3.39V4.138H23.281V5.855L16.589,0,.3,14.266,1.554,15.7l.7-.609V32.626H30.929V15.094l.694.608ZM29.017,30.714H4.162V13.421L16.59,2.541l8.6,7.528V6.05h1.912v5.691l1.912,1.677Z" fill="#fff"/>
  </g>
</svg>
