<svg xmlns="http://www.w3.org/2000/svg" width="26.893" height="17.141" viewBox="0 0 26.893 17.141">
  <g id="viewShow" transform="translate(0 -92.835)">
    <g id="Сгруппировать_7317" data-name="Сгруппировать 7317" transform="translate(0 92.835)">
      <g id="Сгруппировать_7316" data-name="Сгруппировать 7316" transform="translate(0 0)">
        <path id="Контур_44930" data-name="Контур 44930" d="M26.722,100.882c-.24-.329-5.965-8.047-13.276-8.047S.411,100.554.171,100.882a.887.887,0,0,0,0,1.046c.24.329,5.965,8.047,13.276,8.047s13.035-7.719,13.276-8.047A.886.886,0,0,0,26.722,100.882ZM13.446,108.2c-5.385,0-10.05-5.123-11.43-6.8,1.379-1.676,6.033-6.8,11.43-6.8s10.049,5.122,11.43,6.8C23.5,103.082,18.843,108.2,13.446,108.2Z" transform="translate(0 -92.835)" fill="#6283e5"/>
      </g>
    </g>
    <g id="Сгруппировать_7319" data-name="Сгруппировать 7319" transform="translate(8.127 96.086)">
      <g id="Сгруппировать_7318" data-name="Сгруппировать 7318" transform="translate(0 0)">
        <path id="Контур_44931" data-name="Контур 44931" d="M160.041,154.725a5.319,5.319,0,1,0,5.319,5.319A5.326,5.326,0,0,0,160.041,154.725Z" transform="translate(-154.722 -154.725)" fill="#6283e5"/>
      </g>
    </g>
  </g>
</svg>
