<svg xmlns="http://www.w3.org/2000/svg" width="29.805" height="20.956" viewBox="0 0 29.805 20.956">
  <path id="youtube-play_-_FontAwesome" data-name="youtube-play - FontAwesome" d="M14.9,20.956c-2.3-.022-4.315-.059-5.979-.108-1.624-.047-2.777-.09-3.334-.124l-.815-.067-.6-.066a8.139,8.139,0,0,1-.906-.167,5.122,5.122,0,0,1-.848-.35,3.327,3.327,0,0,1-.94-.682,3.273,3.273,0,0,1-.258-.307,5.584,5.584,0,0,1-.482-.973,6.314,6.314,0,0,1-.44-1.68c-.089-.706-.159-1.47-.208-2.27S.012,12.737,0,12.274V9.347A35.256,35.256,0,0,1,.3,4.524,6.616,6.616,0,0,1,.716,2.869a4.2,4.2,0,0,1,.532-1.023l.232-.283a4.037,4.037,0,0,1,.483-.441A3.225,3.225,0,0,1,2.479.8C2.667.7,2.819.634,2.945.582A2.282,2.282,0,0,1,3.419.449c.183-.034.313-.058.39-.075a3.734,3.734,0,0,1,.383-.05C4.362.308,4.463.3,4.475.3,7.24.1,10.748,0,14.9,0c1.866,0,3.682.025,5.4.075s3.011.1,3.817.158L25.33.3c.012,0,.113.008.283.025A3.734,3.734,0,0,1,26,.374c.077.017.207.041.39.075a2.282,2.282,0,0,1,.474.133c.122.05.27.118.466.216a3.214,3.214,0,0,1,.515.324,4.038,4.038,0,0,1,.483.441,3.1,3.1,0,0,1,.258.307,5.584,5.584,0,0,1,.482.973,6.358,6.358,0,0,1,.441,1.68c.088.706.158,1.47.208,2.27s.079,1.435.091,1.888v2.927a35.434,35.434,0,0,1-.3,4.823,6.713,6.713,0,0,1-.416,1.655,4.235,4.235,0,0,1-.533,1.023l-.232.283a4.037,4.037,0,0,1-.483.441,2.748,2.748,0,0,1-.515.315c-.187.088-.339.156-.466.208a2.239,2.239,0,0,1-.474.133c-.182.034-.315.058-.4.075s-.211.034-.382.05-.264.025-.275.025C22.565,20.85,19.057,20.956,14.9,20.956ZM11.826,5.971v8.366l8.049-4.158Z" fill="#e95353"/>
</svg>
