<svg xmlns="http://www.w3.org/2000/svg" width="22.149" height="22.089" viewBox="0 0 22.149 22.089">
  <g id="check-mark_1_" data-name="check-mark (1)" transform="translate(0 -0.062)">
    <g id="Сгруппировать_7241" data-name="Сгруппировать 7241" transform="translate(0 0.062)">
      <g id="Сгруппировать_7240" data-name="Сгруппировать 7240">
        <path id="Контур_44878" data-name="Контур 44878" d="M18.116.062H4.032A4.032,4.032,0,0,0,0,4.095V18.118a4.032,4.032,0,0,0,4.032,4.033H18.116a4.033,4.033,0,0,0,4.032-4.033V4.095A4.032,4.032,0,0,0,18.116.062Zm.134,9.161-7.618,7.618a1.723,1.723,0,0,1-2.437,0L4.419,13.066a1.724,1.724,0,1,1,2.437-2.438l2.25,2.251a.435.435,0,0,0,.616,0l6.092-6.092a1.723,1.723,0,1,1,2.437,2.437Z" transform="translate(0 -0.062)" fill="#6fb77f"/>
      </g>
    </g>
  </g>
</svg>
