<svg xmlns="http://www.w3.org/2000/svg" width="21.33" height="21.332" viewBox="0 0 21.33 21.332">
  <g id="exit_1_" data-name="exit (1)" transform="translate(-0.014)">
    <g id="Сгруппировать_7296" data-name="Сгруппировать 7296" transform="translate(0.014)">
      <g id="Сгруппировать_7295" data-name="Сгруппировать 7295" transform="translate(0)">
        <path id="Контур_44923" data-name="Контур 44923" d="M307.5,152.554a.9.9,0,0,0-.193-.29l-2.666-2.666a.889.889,0,1,0-1.257,1.257L304.534,152h-4.965a.889.889,0,0,0,0,1.778h4.965l-1.149,1.149a.889.889,0,1,0,1.257,1.257l2.666-2.666a.88.88,0,0,0,.193-.29A.89.89,0,0,0,307.5,152.554Z" transform="translate(-286.237 -143.117)" fill="#fff"/>
        <path id="Контур_44924" data-name="Контур 44924" d="M15.124,12.443a.889.889,0,0,0-.889.889v4.444H10.68V3.555a.89.89,0,0,0-.634-.851L6.959,1.778h7.276V6.222a.889.889,0,0,0,1.778,0V.889A.889.889,0,0,0,15.124,0H.9A.792.792,0,0,0,.811.017.878.878,0,0,0,.434.148C.415.161.391.162.372.176S.362.191.355.2A.881.881,0,0,0,.119.477.726.726,0,0,0,.094.552.843.843,0,0,0,.024.76a.553.553,0,0,0,0,.077C.026.855.014.871.014.889V18.665a.888.888,0,0,0,.715.871l8.888,1.778a.827.827,0,0,0,.174.018.889.889,0,0,0,.889-.889v-.889h4.444a.889.889,0,0,0,.889-.889V13.332A.889.889,0,0,0,15.124,12.443Z" transform="translate(-0.014)" fill="#fff"/>
      </g>
    </g>
  </g>
</svg>
