<svg xmlns="http://www.w3.org/2000/svg" xmlns:xlink="http://www.w3.org/1999/xlink" width="65.432" height="66" viewBox="0 0 65.432 66">
  <defs>
    <filter id="Контур_44891" x="0" y="0" width="65.432" height="66" filterUnits="userSpaceOnUse">
      <feOffset dy="3" input="SourceAlpha"/>
      <feGaussianBlur stdDeviation="7.5" result="blur"/>
      <feFlood flood-color="#1c1860" flood-opacity="0.149"/>
      <feComposite operator="in" in2="blur"/>
      <feComposite in="SourceGraphic"/>
    </filter>
  </defs>
  <g transform="matrix(1, 0, 0, 1, 0, 0)" filter="url(#Контур_44891)">
    <path id="Контур_44891-2" data-name="Контур 44891" d="M26,13.262l-2.215-1.738a8.246,8.246,0,0,0,.073-1.024,8.246,8.246,0,0,0-.073-1.024L26,7.738a.524.524,0,0,0,.126-.672l-2.1-3.638a.519.519,0,0,0-.64-.226L20.775,4.258A7.967,7.967,0,0,0,19,3.223L18.607.441A.54.54,0,0,0,18.082,0h-4.2a.53.53,0,0,0-.52.441l-.394,2.782a7.77,7.77,0,0,0-1.774,1.034L8.579,3.2a.525.525,0,0,0-.64.226l-2.1,3.638a.526.526,0,0,0,.126.672L8.18,9.476A8.246,8.246,0,0,0,8.106,10.5a8.246,8.246,0,0,0,.073,1.024L5.964,13.262a.524.524,0,0,0-.126.672l2.1,3.638a.519.519,0,0,0,.64.226l2.615-1.055a7.967,7.967,0,0,0,1.774,1.034l.394,2.782a.53.53,0,0,0,.52.441h4.2a.53.53,0,0,0,.52-.441l.394-2.782a7.77,7.77,0,0,0,1.774-1.034L23.384,17.8a.525.525,0,0,0,.64-.226l2.1-3.638A.526.526,0,0,0,26,13.262Zm-10.017.914A3.675,3.675,0,1,1,19.657,10.5,3.672,3.672,0,0,1,15.981,14.175Z" transform="translate(16.73 19.5)" fill="#fff"/>
  </g>
</svg>
