<svg xmlns="http://www.w3.org/2000/svg" width="48" height="47" viewBox="0 0 48 47"><defs><style>.a{fill:rgba(62,63,67,0);}.a,.b{stroke-linejoin:round;}.b{fill:none;}.c,.d{stroke:none;}.d{fill:#3e3f43;}</style></defs><g transform="translate(-127 -469)"><g class="a"><path class="c" d="M 146.9997100830078 514.4996948242188 C 144.5015869140625 514.4996948242188 142.0789794921875 514.0108032226563 139.7991485595703 513.0465087890625 C 137.5963439941406 512.1148071289063 135.6177368164063 510.7807006835938 133.9183044433594 509.0812683105469 C 132.2188415527344 507.3817749023438 130.8847351074219 505.4031982421875 129.9530944824219 503.2004699707031 C 128.9888153076172 500.920654296875 128.4998931884766 498.498046875 128.4998931884766 495.9999084472656 C 128.4998931884766 491.2608032226563 130.289794921875 486.75341796875 133.5398712158203 483.3080139160156 C 136.1095886230469 480.5838928222656 139.3919219970703 478.7304077148438 142.9837341308594 477.9366760253906 C 142.0074920654297 480.1467590332031 141.5001220703125 482.5431213378906 141.5001220703125 485.0001220703125 C 141.5001220703125 489.6744384765625 143.3203887939453 494.0690307617188 146.6256103515625 497.3744201660156 C 149.9309692382813 500.6799011230469 154.3257141113281 502.5003051757813 159.0003051757813 502.5003051757813 C 160.9265289306641 502.5003051757813 162.8376770019531 502.1814270019531 164.6473083496094 501.5661315917969 C 163.6270904541016 504.7978515625 161.7230529785156 507.715576171875 159.1267395019531 509.9710998535156 C 155.7652130126953 512.8914184570313 151.4584197998047 514.4996948242188 146.9997100830078 514.4996948242188 Z"/><path class="d" d="M 146.9997100830078 512.9996948242188 C 151.096923828125 512.9996948242188 155.0543670654297 511.52197265625 158.1430053710938 508.8387145996094 C 159.8025817871094 507.39697265625 161.1541900634766 505.6615295410156 162.138916015625 503.7393493652344 C 161.1049346923828 503.9122619628906 160.0545654296875 504.0003051757813 159.0003051757813 504.0003051757813 C 153.925048828125 504.0003051757813 149.1536102294922 502.0238647460938 145.5649261474609 498.43505859375 C 141.9763946533203 494.8463745117188 140.0001220703125 490.0750732421875 140.0001220703125 485.0001220703125 C 140.0001220703125 483.3802185058594 140.2032928466797 481.7845458984375 140.6003112792969 480.2436218261719 C 138.364013671875 481.1517028808594 136.3285827636719 482.5377197265625 134.6309967041016 484.3373107910156 C 131.6445922851563 487.503173828125 129.9998931884766 491.6450500488281 129.9998931884766 495.9999084472656 C 129.9998931884766 498.2962036132813 130.4489593505859 500.522216796875 131.3345947265625 502.6161499023438 C 132.1906280517578 504.6400756835938 133.4167785644531 506.4584045410156 134.9789733886719 508.0206298828125 C 136.5411376953125 509.582763671875 138.3594665527344 510.8089294433594 140.3834686279297 511.6650085449219 C 142.4774017333984 512.5506591796875 144.7034301757813 512.9996948242188 146.9997100830078 512.9996948242188 M 146.9997100830078 515.9996948242188 C 144.2998504638672 515.9996948242188 141.6806335449219 515.470947265625 139.21484375 514.4280395507813 C 136.8332824707031 513.4207153320313 134.6944122314453 511.9786987304688 132.8576507568359 510.1419372558594 C 131.0209350585938 508.3052062988281 129.5788726806641 506.1663513183594 128.5715789794922 503.7847900390625 C 127.5286865234375 501.319091796875 126.9999008178711 498.6998901367188 126.9999008178711 495.9999084472656 C 126.9999008178711 490.8765563964844 128.9349975585938 486.0036315917969 132.44873046875 482.2787475585938 C 135.9476623535156 478.5695495605469 140.6689147949219 476.3535766601563 145.7427825927734 476.0390319824219 C 143.9488220214844 478.6880798339844 143.0001220703125 481.7862243652344 143.0001220703125 485.0001220703125 C 143.0001220703125 489.2738037109375 144.6643676757813 493.2917175292969 147.6862945556641 496.3137817382813 C 150.7083435058594 499.3359375 154.7263946533203 501.0003051757813 159.0003051757813 501.0003051757813 C 161.7242431640625 501.0003051757813 164.4140625 500.303466796875 166.7790069580078 498.985107421875 C 166.0770263671875 503.674560546875 163.7082366943359 507.9779357910156 160.1104736328125 511.1034545898438 C 156.4760437011719 514.2608642578125 151.8198852539063 515.9996948242188 146.9997100830078 515.9996948242188 Z"/></g><g class="b"><path class="c" d="M127,496a20,20,0,0,1,18.743-19.961,16,16,0,1,1,21.036,22.946A20,20,0,0,1,127,496Z"/><path class="d" d="M 146.9997100830078 512.9996948242188 C 151.0969085693359 512.9996948242188 155.0543518066406 511.52197265625 158.1429748535156 508.8387451171875 C 161.2025756835938 506.1807250976563 163.2158966064453 502.5235595703125 163.8120727539063 498.5409851074219 C 163.9497222900391 497.621337890625 164.5060577392578 496.8175354003906 165.3182525634766 496.3647766113281 C 169.4394683837891 494.0673217773438 171.9996032714844 489.712646484375 171.9996032714844 485.0001220703125 C 171.9996032714844 481.5274658203125 170.6474304199219 478.2627563476563 168.1921691894531 475.807373046875 C 165.7369689941406 473.3521118164063 162.4725799560547 471.9999084472656 159.0003051757813 471.9999084472656 C 154.6803894042969 471.9999084472656 150.6529083251953 474.1387023925781 148.2267761230469 477.7212219238281 C 147.7053833007813 478.4911499023438 146.8564605712891 478.9757690429688 145.9283905029297 479.0332946777344 C 141.6175384521484 479.3005065917969 137.6053924560547 481.1842041015625 134.6310119628906 484.3373107910156 C 131.6445922851563 487.5032043457031 129.9999084472656 491.6450805664063 129.9999084472656 495.9999084472656 C 129.9999084472656 500.540771484375 131.7681732177734 504.809814453125 134.9789886474609 508.0206298828125 C 138.1897888183594 511.2314147949219 142.4588317871094 512.9996948242188 146.9997100830078 512.9996948242188 M 146.9997100830078 515.9996948242188 C 135.9540100097656 515.9996948242188 126.9999084472656 507.0456237792969 126.9999084472656 495.9999084472656 C 126.9999084472656 485.3762512207031 135.2824859619141 476.6874694824219 145.7427825927734 476.0390319824219 C 148.6193542480469 471.7913818359375 153.4835815429688 468.9999084472656 159.0003051757813 468.9999084472656 C 167.8365020751953 468.9999084472656 174.9996032714844 476.1630249023438 174.9996032714844 485.0001220703125 C 174.9996032714844 491.0129699707031 171.6829071044922 496.2513427734375 166.7790069580078 498.985107421875 C 165.3375396728516 508.6146240234375 157.03076171875 515.9996948242188 146.9997100830078 515.9996948242188 Z"/></g></g></svg>