<svg xmlns="http://www.w3.org/2000/svg" width="65" height="49" viewBox="0 0 65 49"><defs><style>.a{fill:#3e3f43;}</style></defs><g transform="translate(-446 -75)"><path class="a" d="M501,124a9.95,9.95,0,0,1-6.712-2.6,17.873,17.873,0,0,1-18.576,0,9.994,9.994,0,1,1-8.621-17.21,18,18,0,0,1,35.817,0A10,10,0,0,1,501,124Zm1.939-16.722a18.053,18.053,0,0,1-1.133,5.125l-.1-.052a1.472,1.472,0,0,1-1.2.649,1.5,1.5,0,0,1-1.5-1.5,1.465,1.465,0,0,1,.181-.677,15.118,15.118,0,0,0,.771-3.735h-.007c.026-.361.055-.721.055-1.088h0c0-.413-.029-.82-.062-1.225q-.05-.532-.13-1.056a14.991,14.991,0,0,0-29.8,1.813c.025-.808-.064.48-.1.411a1.472,1.472,0,0,1-.923.958c0,.033.012.066.012.1a7,7,0,1,0,5.356,11.505l.02.028a1.448,1.448,0,0,1,2.111-.143c.006-.015.013-.025.019-.04a14.937,14.937,0,0,0,16.9.059c.005.021.012.032.017.052a1.491,1.491,0,0,1,2.138-.019l.012-.021a7,7,0,1,0,7.364-11.144Z"/><path class="a" d="M452.444,112.557v0a18.805,18.805,0,0,1,.893-2.846c.537-1.3,1.424-2.848,2.6-2.848a2.135,2.135,0,0,1,1.459.746,1.864,1.864,0,0,1,.689,1.851c-.167.567-.823,1.423-3,2.284a18.887,18.887,0,0,1-2.64.814Zm10.189-4.822h0a12,12,0,1,1,15.852-16.578,12.619,12.619,0,0,0-2.708,1.308,9,9,0,1,0-9.738,13.321L463,107l-.367.734Zm-11.447-8.721c-2.052,0-5.154-1.993-5.185-2.013l.01-.008c.326-.205,3.239-2.006,5.174-2.006,1.2,0,1.815.678,1.815,2.014S452.389,99.014,451.185,99.014Zm28.88-11.874a2.138,2.138,0,0,1-1.459-.746,1.864,1.864,0,0,1-.689-1.851c.59-2,5.588-3.088,5.639-3.1a.067.067,0,0,1,0,.021,19.191,19.191,0,0,1-.89,2.827C482.126,85.591,481.239,87.14,480.065,87.14Zm-24.131,0c-1.173,0-2.06-1.549-2.6-2.848a18.871,18.871,0,0,1-.894-2.848h.011c.517.117,5.067,1.2,5.628,3.1a1.864,1.864,0,0,1-.689,1.851A2.135,2.135,0,0,1,455.935,87.14ZM468,82a1.864,1.864,0,0,1-1.8-.822c-1-1.831,1.768-6.135,1.8-6.178l.007.008c.283.448,2.736,4.43,1.789,6.17A1.864,1.864,0,0,1,468,82Z"/></g></svg>