<svg xmlns="http://www.w3.org/2000/svg" width="52" height="46" viewBox="0 0 52 46"><defs><style>.a{fill:#3e3f43;}</style></defs><g transform="translate(-628 -212)"><path class="a" d="M670.668,247.966a1.428,1.428,0,0,1-.168.034h-2a1.5,1.5,0,0,1,0-3H670a7,7,0,0,0,1.939-13.722,18.053,18.053,0,0,1-1.133,5.125l-.1-.052a1.473,1.473,0,0,1-1.2.649,1.5,1.5,0,0,1-1.5-1.5,1.466,1.466,0,0,1,.181-.677,15.112,15.112,0,0,0,.771-3.735h-.007c.026-.361.055-.721.055-1.088,0-.413-.029-.82-.062-1.225q-.05-.532-.13-1.056a14.991,14.991,0,0,0-29.8,1.813c.025-.808-.064.48-.1.411a1.472,1.472,0,0,1-.923.958c0,.033.012.066.012.1a7,7,0,0,0,0,14h2.139a1.47,1.47,0,0,1-.292,2.774l0,.053a10,10,0,0,1-3.758-19.64,18,18,0,0,1,35.817,0,9.992,9.992,0,0,1-1.241,19.779Z"/><path class="a" d="M652,256a2,2,0,1,1,2,2A2,2,0,0,1,652,256Zm7-4a2,2,0,1,1,2,2A2,2,0,0,1,659,252Zm-14,0a2,2,0,1,1,2,2A2,2,0,0,1,645,252Zm7-4a2,2,0,1,1,2,2A2,2,0,0,1,652,248Zm7-4a2,2,0,1,1,2,2A2,2,0,0,1,659,244Zm-14,0a2,2,0,1,1,2,2A2,2,0,0,1,645,244Zm7-4a2,2,0,1,1,2,2A2,2,0,0,1,652,240Z"/></g></svg>