<svg xmlns="http://www.w3.org/2000/svg" width="40.756" height="45" viewBox="0 0 40.756 45"><defs><style>.a{fill:#3e3f43;}</style></defs><g transform="translate(-463.122 -343)"><path class="a" d="M482,386.5v-4.879l-3.329,3.329a1.5,1.5,0,1,1-2.121-2.121l5.45-5.45v-9.289l-8.029,4.636-1.995,7.444a1.5,1.5,0,1,1-2.9-.777l1.218-4.546-4.225,2.439a1.5,1.5,0,1,1-1.5-2.6l4.225-2.439-4.546-1.218a1.5,1.5,0,1,1,.777-2.9l7.444,1.994,8.029-4.635-8.045-4.645-7.445,1.994a1.5,1.5,0,1,1-.776-2.9l4.546-1.218-4.225-2.439a1.5,1.5,0,0,1,1.5-2.6l4.224,2.439-1.218-4.547a1.5,1.5,0,0,1,2.9-.776l1.995,7.444L482,362.893v-9.271l-5.45-5.45a1.5,1.5,0,1,1,2.121-2.121L482,349.379V344.5a1.5,1.5,0,1,1,3,0v4.878l3.328-3.328a1.5,1.5,0,1,1,2.121,2.121L485,353.621v9.272l8.045-4.645,1.995-7.444a1.5,1.5,0,1,1,2.9.776l-1.218,4.547,4.225-2.439a1.5,1.5,0,1,1,1.5,2.6l-4.225,2.439,4.547,1.218a1.5,1.5,0,1,1-.777,2.9l-7.445-1.994-8.044,4.644,8.029,4.636,7.445-1.994a1.5,1.5,0,1,1,.776,2.9l-4.546,1.218,4.225,2.439a1.5,1.5,0,0,1-1.5,2.6l-4.224-2.439,1.218,4.546a1.5,1.5,0,1,1-2.9.777l-1.995-7.444L485,368.089v9.29l5.449,5.45a1.5,1.5,0,0,1-2.121,2.121L485,381.622V386.5a1.5,1.5,0,1,1-3,0Z"/></g></svg>