<svg xmlns="http://www.w3.org/2000/svg" width="46" height="46" viewBox="0 0 46 46"><defs><style>.a{fill:#3e3f43;}</style></defs><g transform="translate(-118 -83)"><path class="a" d="M141,120c4.562,0,0,9,0,9S136.437,120,141,120Zm9.9-4.1c3.177-3.176,6.364,6.364,6.364,6.364S147.723,119.076,150.9,115.9Zm-19.8,0c3.227,3.227-6.364,6.364-6.364,6.364S127.875,112.674,131.1,115.9Zm2.121-2.121A11,11,0,1,1,141,117,10.924,10.924,0,0,1,133.222,113.778ZM133,106a8,8,0,1,0,8-8A8.01,8.01,0,0,0,133,106Zm22,0c0-4.493,9,0,9,0s-4,2-6.667,2C156,108,155,107.5,155,106Zm-37,0s9-4.493,9,0c0,1.5-1,2-2.333,2C122,108,118,106,118,106Zm32.9-9.9c-3.227-3.226,6.364-6.364,6.364-6.364s-2.3,7.028-4.985,7.027A1.949,1.949,0,0,1,150.9,96.1Zm-26.163-6.364s9.541,3.188,6.364,6.364a1.907,1.907,0,0,1-1.351.648C127.079,96.749,124.736,89.736,124.736,89.736ZM141,83s4.562,9,0,9S141,83,141,83Z"/></g></svg>