<svg xmlns="http://www.w3.org/2000/svg" width="66" height="45.5" viewBox="0 0 66 45.5"><defs><style>.a,.d{fill:none;}.a{stroke:#3e3f43;stroke-linecap:round;stroke-linejoin:round;stroke-width:3px;}.b{fill:#3e3f43;}.c{stroke:none;}</style></defs><g transform="translate(-279 -472)"><g class="a" transform="translate(290 472)"><ellipse class="c" cx="22.5" cy="8.5" rx="22.5" ry="8.5"/><ellipse class="d" cx="22.5" cy="8.5" rx="21" ry="7"/></g><path class="a" d="M294,489s1.125,6,18,6c16,0,18-6,18-6"/><path class="a" d="M298,497s2.125,4,14,4,14-4,14-4"/><path class="a" d="M303,506s2,3,9,3,9-3,9-3"/><path class="a" d="M319,514a4.446,4.446,0,0,1-4,2c-2.937,0-4-1-4-1"/><path class="b" d="M332,501a2,2,0,1,1,2,2A2,2,0,0,1,332,501Zm-44-1a2,2,0,1,1,2,2A2,2,0,0,1,288,500Zm53-4a2,2,0,1,1,2,2A2,2,0,0,1,341,496Zm-62-2a2,2,0,1,1,2,2A2,2,0,0,1,279,494Zm59-7a2,2,0,1,1,2,2A2,2,0,0,1,338,487Zm-55-1a2,2,0,1,1,2,2A2,2,0,0,1,283,486Z"/></g></svg>