<svg id="image" xmlns="http://www.w3.org/2000/svg" width="23.57" height="23.57" viewBox="0 0 23.57 23.57">
  <path id="Контур_2846" data-name="Контур 2846" d="M241.051,247.435a6.384,6.384,0,1,1,6.384-6.384A6.391,6.391,0,0,1,241.051,247.435Zm0-11.294a4.91,4.91,0,1,0,4.911,4.91A4.916,4.916,0,0,0,241.051,236.141Zm0,0" transform="translate(-223.865 -223.865)" fill="#6283e5"/>
  <path id="Контур_2847" data-name="Контур 2847" d="M358.069,305.543a.737.737,0,0,1-.737-.737v-5.4a.737.737,0,0,1,1.473,0v5.4A.737.737,0,0,1,358.069,305.543Zm0,0" transform="translate(-340.882 -284.919)" fill="#6283e5"/>
  <path id="Контур_2848" data-name="Контур 2848" d="M304.806,358.805h-5.4a.737.737,0,0,1,0-1.473h5.4a.737.737,0,0,1,0,1.473Zm0,0" transform="translate(-284.919 -340.882)" fill="#6283e5"/>
  <path id="Контур_2849" data-name="Контур 2849" d="M9.075,19.642H2.7a2.7,2.7,0,0,1-2.7-2.7V2.7A2.7,2.7,0,0,1,2.7,0H13.013a2.7,2.7,0,0,1,2.7,2.7V9.075a.737.737,0,0,1-1.473,0V2.7a1.229,1.229,0,0,0-1.228-1.228H2.7A1.229,1.229,0,0,0,1.473,2.7v14.24A1.229,1.229,0,0,0,2.7,18.169H9.075a.737.737,0,0,1,0,1.473Zm0,0" fill="#6283e5"/>
  <path id="Контур_2850" data-name="Контур 2850" d="M65.964,110.6a1.964,1.964,0,1,1,1.964-1.964A1.966,1.966,0,0,1,65.964,110.6Zm0-2.455a.491.491,0,1,0,.491.491A.492.492,0,0,0,65.964,108.141Zm0,0" transform="translate(-61.054 -101.757)" fill="#6283e5"/>
  <path id="Контур_2851" data-name="Контур 2851" d="M.74,181.769a.737.737,0,0,1-.521-1.258l2-2a1.767,1.767,0,0,1,2.436,0L5.9,179.745l4.675-4.675a1.767,1.767,0,0,1,2.436,0l.53.53a.737.737,0,1,1-1.042,1.042l-.53-.53a.213.213,0,0,0-.353,0l-5.2,5.2a.737.737,0,0,1-1.042,0l-1.758-1.758a.213.213,0,0,0-.352,0l-2,2a.731.731,0,0,1-.521.216Zm0,0" transform="translate(-0.004 -166.546)" fill="#6283e5"/>
</svg>
